<svg id="svg" version="1.1" width="377" height="800" xmlns="http://www.w3.org/2000/svg"><path d="M158.500 0.626 C 147.847 2.724,144.992 3.494,141.711 5.159 C 136.107 8.001,134.008 12.124,134.004 20.300 C 134.002 24.322,133.399 28.261,132.529 29.945 C 131.719 31.510,130.781 34.750,130.444 37.145 C 130.106 39.540,129.208 43.161,128.447 45.190 C 127.500 47.716,127.257 50.946,127.676 55.428 C 128.021 59.125,127.750 65.138,127.054 69.238 C 125.931 75.851,126.000 76.992,127.826 82.000 C 128.929 85.025,130.542 90.035,131.410 93.134 C 132.980 98.738,132.973 98.805,130.080 105.634 C 123.898 120.228,122.240 127.554,122.079 141.000 C 122.029 145.125,121.060 153.675,119.925 160.000 C 118.791 166.325,117.280 175.335,116.568 180.022 C 115.070 189.884,113.003 194.367,106.433 202.000 C 103.830 205.025,99.865 209.975,97.622 213.000 C 95.380 216.025,91.838 220.486,89.752 222.914 C 87.666 225.342,84.166 230.576,81.975 234.545 C 79.784 238.515,77.430 242.217,76.745 242.772 C 76.060 243.328,69.425 243.997,62.000 244.259 C 53.394 244.563,46.869 245.309,44.000 246.318 C 41.525 247.189,37.700 248.361,35.500 248.924 C 30.320 250.249,17.373 260.783,14.149 266.296 C 6.476 279.418,3.009 288.278,2.994 294.799 C 2.990 296.284,2.315 298.789,1.494 300.364 C -1.293 305.707,0.438 309.000,6.032 309.000 C 8.589 309.000,16.361 301.040,21.655 293.000 C 27.367 284.326,36.811 275.146,43.000 272.253 C 47.459 270.168,50.250 269.634,57.750 269.433 C 66.828 269.189,67.000 269.228,67.000 271.502 C 67.000 273.873,61.461 281.520,56.498 286.000 C 48.818 292.933,45.269 302.015,50.250 301.988 C 51.487 301.981,54.409 300.202,56.743 298.034 C 63.345 291.903,70.072 291.502,79.652 296.669 C 99.191 307.208,107.181 310.000,117.804 310.000 L 124.188 310.000 123.468 315.230 C 123.073 318.106,122.098 322.269,121.301 324.480 C 119.516 329.437,118.586 334.477,116.036 353.000 C 114.938 360.975,113.604 369.525,113.071 372.000 C 110.839 382.376,110.438 385.632,111.101 388.000 C 112.428 392.740,111.994 418.228,110.480 424.500 C 109.587 428.198,109.025 435.700,109.016 444.054 L 109.000 457.608 105.500 461.000 C 102.300 464.102,102.000 464.885,102.000 470.137 C 102.000 473.814,102.939 478.485,104.610 483.117 C 106.633 488.725,107.079 491.382,106.594 494.926 C 106.249 497.442,105.486 504.000,104.898 509.500 C 102.678 530.264,101.219 539.251,98.973 546.000 C 97.352 550.872,92.277 560.583,88.358 566.314 C 86.548 568.961,84.796 572.786,84.466 574.814 C 84.136 576.841,83.644 579.695,83.374 581.155 C 83.104 582.615,83.330 584.086,83.877 584.424 C 84.457 584.783,85.125 583.051,85.480 580.269 C 86.108 575.344,88.236 570.463,94.923 558.610 C 100.255 549.159,103.843 537.075,104.459 526.500 C 104.812 520.436,107.820 499.121,109.078 493.771 C 110.064 489.577,109.956 488.665,108.125 485.703 C 105.489 481.437,103.120 471.247,104.010 468.000 C 104.387 466.625,106.339 463.857,108.348 461.850 C 111.435 458.764,112.000 457.525,112.000 453.835 C 112.000 451.389,112.874 447.839,113.988 445.761 C 115.082 443.720,116.247 439.452,116.577 436.276 C 116.908 433.099,117.998 425.775,119.000 420.000 C 120.002 414.225,121.155 401.625,121.561 392.000 C 122.461 370.679,122.463 371.562,121.512 360.500 C 120.876 353.098,121.102 349.813,122.789 342.000 C 126.559 324.542,128.000 316.484,128.000 312.867 C 128.000 310.669,128.989 307.821,130.554 305.516 C 131.958 303.446,134.256 298.884,135.660 295.377 C 137.064 291.869,138.437 289.000,138.711 289.000 C 139.355 289.000,138.656 294.358,136.625 305.000 C 133.765 319.986,135.085 334.178,140.530 347.000 L 143.291 353.500 141.138 364.000 C 139.698 371.020,138.987 378.131,138.992 385.454 C 138.999 394.578,138.493 398.255,135.964 407.454 C 134.295 413.529,132.495 419.281,131.964 420.236 C 131.434 421.191,131.000 422.294,131.000 422.686 C 131.000 425.787,138.683 410.633,141.487 402.000 C 145.123 390.809,150.113 383.000,153.629 383.000 C 155.364 383.000,156.626 384.394,159.107 389.050 C 160.881 392.378,163.720 396.069,165.416 397.252 C 167.112 398.435,168.812 399.860,169.193 400.418 C 169.940 401.512,171.310 398.500,172.450 393.261 C 173.138 390.095,174.614 388.280,175.654 389.321 C 176.585 390.252,173.850 401.402,171.771 405.148 C 169.915 408.492,169.861 409.159,171.123 413.148 C 172.223 416.624,173.014 417.560,175.052 417.797 C 176.612 417.979,178.293 417.333,179.376 416.137 C 181.088 414.246,181.052 414.134,178.324 412.831 C 176.564 411.990,175.372 410.542,175.160 408.991 L 174.819 406.500 177.714 409.250 C 179.307 410.762,181.165 412.000,181.845 412.000 C 185.973 412.000,195.308 419.434,196.287 423.500 C 196.551 424.600,196.835 423.250,196.917 420.500 C 196.998 417.750,197.923 413.025,198.970 410.000 L 200.875 404.500 198.188 402.270 L 195.500 400.041 197.750 399.404 C 201.215 398.423,200.458 397.496,195.064 396.113 C 191.278 395.143,188.175 393.126,181.745 387.460 C 174.550 381.118,172.770 378.875,169.181 371.633 C 165.763 364.735,165.000 362.165,165.000 357.548 C 165.000 354.442,164.314 350.573,163.474 348.950 C 160.474 343.148,163.216 344.980,180.304 360.197 C 187.297 366.424,192.601 370.155,198.804 373.213 C 204.475 376.009,207.917 378.357,208.699 379.964 C 209.731 382.085,209.990 382.190,210.556 380.714 C 210.918 379.771,210.955 378.325,210.638 377.500 C 210.322 376.675,210.502 376.000,211.038 376.000 C 211.574 376.000,213.023 374.834,214.257 373.408 C 217.237 369.965,219.653 368.755,222.038 369.512 C 224.560 370.312,224.576 373.755,222.071 376.436 C 220.132 378.511,215.000 392.382,215.000 395.549 C 215.000 398.410,217.811 395.317,221.059 388.883 C 222.652 385.727,224.378 382.885,224.894 382.566 C 226.236 381.736,232.968 389.920,232.324 391.599 C 232.028 392.370,230.683 393.000,229.336 393.000 C 224.534 393.000,217.862 395.281,216.507 397.385 C 215.758 398.548,213.741 403.775,212.024 409.000 C 210.308 414.225,208.305 419.625,207.574 421.000 C 205.279 425.313,202.704 437.211,202.487 444.500 C 202.373 448.350,201.330 455.814,200.171 461.086 C 199.012 466.359,197.854 475.134,197.599 480.586 C 197.344 486.039,197.338 489.150,197.586 487.500 C 199.467 474.986,201.167 465.753,201.949 463.804 C 202.814 461.648,202.877 461.701,202.937 464.628 C 203.009 468.216,203.856 469.045,209.816 471.360 C 215.244 473.469,216.575 472.724,213.435 469.335 C 210.636 466.315,210.494 465.253,212.532 462.559 C 214.642 459.769,214.349 457.204,211.540 453.865 C 210.187 452.257,208.784 449.368,208.424 447.445 C 207.892 444.612,207.505 444.166,206.384 445.096 C 205.251 446.037,205.008 445.633,205.044 442.872 C 205.100 438.589,207.253 430.347,208.692 428.908 C 209.492 428.108,210.781 428.277,213.418 429.528 C 216.368 430.928,216.781 431.458,215.637 432.374 C 214.222 433.508,213.283 436.545,212.353 443.000 L 211.848 446.500 213.951 443.182 C 215.264 441.109,217.826 439.108,220.777 437.850 C 223.375 436.742,226.990 435.164,228.810 434.343 C 231.771 433.007,232.374 433.015,234.525 434.424 C 238.036 436.725,239.756 436.373,241.500 433.000 C 243.245 429.625,245.907 429.133,248.270 431.750 C 249.491 433.103,249.725 434.862,249.299 439.500 C 248.995 442.800,248.819 447.248,248.908 449.384 C 248.996 451.520,248.490 453.995,247.784 454.884 C 244.230 459.358,242.474 467.000,245.000 467.000 C 245.550 467.000,246.000 467.675,246.000 468.500 C 246.000 470.969,247.768 470.197,248.731 467.308 L 249.628 464.616 254.314 468.935 C 256.891 471.311,259.000 473.997,259.000 474.905 C 259.000 477.102,261.910 481.174,262.999 480.500 C 263.474 480.207,264.158 480.447,264.520 481.032 C 265.466 482.563,268.000 480.241,268.000 477.842 C 268.000 476.790,267.273 474.820,266.385 473.465 C 264.892 471.186,264.899 470.803,266.478 468.393 C 268.155 465.835,268.125 465.725,264.887 462.384 C 263.073 460.512,260.107 458.445,258.295 457.790 C 256.125 457.005,255.000 455.942,255.000 454.677 C 255.000 453.089,255.259 452.970,256.487 453.989 C 258.159 455.376,261.468 454.567,260.504 453.007 C 258.827 450.293,262.105 452.550,266.306 457.000 C 270.722 461.679,275.656 463.873,274.399 460.598 C 273.764 458.944,265.528 451.869,262.135 450.065 C 260.132 448.999,259.857 448.271,260.336 445.314 C 261.244 439.723,262.680 438.636,266.017 441.012 C 267.552 442.105,270.175 443.000,271.845 443.000 C 273.515 443.000,275.160 443.450,275.500 444.000 C 276.404 445.462,278.000 445.221,278.000 443.622 C 278.000 441.700,275.595 439.909,272.830 439.772 C 269.968 439.629,266.000 436.253,266.000 433.961 C 266.000 431.275,262.071 427.000,259.602 427.000 C 258.363 427.000,256.292 428.125,255.000 429.500 C 253.708 430.875,252.252 432.000,251.764 432.000 C 251.276 432.000,252.367 430.620,254.188 428.933 C 256.811 426.505,258.144 425.966,260.594 426.345 C 265.054 427.035,269.248 423.472,269.626 418.674 C 269.784 416.670,270.419 414.085,271.038 412.930 C 271.656 411.774,271.976 410.643,271.749 410.416 C 271.522 410.189,270.719 411.240,269.964 412.752 C 267.822 417.040,264.812 420.040,261.000 421.685 C 254.172 424.632,246.433 427.140,241.500 428.005 C 230.245 429.978,229.888 429.919,238.500 427.509 C 243.450 426.124,251.325 423.080,256.000 420.745 C 264.360 416.570,264.558 416.386,268.000 409.551 C 269.925 405.730,272.713 401.547,274.197 400.257 C 275.680 398.968,277.202 396.919,277.579 395.706 C 277.957 394.493,279.776 390.215,281.622 386.200 C 286.335 375.951,291.000 362.380,291.000 358.920 C 291.000 356.648,290.548 356.000,288.960 356.000 C 283.870 356.000,274.650 363.336,270.422 370.750 C 269.403 372.538,268.242 374.000,267.843 374.000 C 267.444 374.000,265.106 375.983,262.648 378.407 C 258.852 382.149,258.457 382.886,260.032 383.298 C 261.087 383.574,262.624 382.968,263.598 381.892 C 264.540 380.851,266.253 380.001,267.405 380.001 C 269.316 380.002,269.244 380.222,266.594 382.501 C 263.276 385.355,262.826 385.428,258.408 383.831 C 255.641 382.830,254.402 382.982,249.837 384.882 C 246.902 386.103,242.660 387.355,240.412 387.665 C 236.881 388.151,236.055 387.885,234.351 385.719 C 232.876 383.844,232.507 382.234,232.891 379.355 L 233.404 375.500 233.952 379.000 C 234.254 380.929,235.061 382.455,235.750 382.400 C 239.267 382.119,239.832 381.879,240.386 380.437 C 240.716 379.577,240.281 377.510,239.419 375.844 C 238.558 374.177,238.047 372.620,238.284 372.383 C 239.133 371.533,240.833 374.565,241.496 378.110 C 242.084 381.259,241.822 381.995,239.450 383.860 L 236.730 386.000 240.143 386.000 C 244.751 386.000,248.000 383.577,248.000 380.139 C 248.000 378.628,246.646 375.256,244.991 372.647 C 242.634 368.930,242.201 367.494,242.991 366.017 C 243.546 364.980,244.000 363.030,244.000 361.684 C 244.000 359.856,247.033 356.363,255.999 347.869 C 262.598 341.616,269.818 333.702,272.042 330.282 C 276.873 322.856,278.193 321.785,277.356 325.968 C 276.819 328.657,276.975 328.954,278.621 328.376 C 280.357 327.766,280.378 327.846,278.893 329.430 C 277.605 330.802,277.455 332.054,278.139 335.715 C 279.311 341.989,280.585 343.404,283.330 341.482 C 286.597 339.193,287.283 339.712,285.341 343.000 C 283.331 346.403,281.679 346.684,277.107 344.403 C 275.244 343.474,272.881 343.064,271.453 343.422 C 269.440 343.928,269.000 344.659,269.000 347.499 C 269.000 351.687,271.776 359.005,273.359 358.988 C 274.988 358.970,287.000 347.036,287.000 345.435 C 287.000 344.700,287.603 343.740,288.339 343.300 C 291.763 341.255,292.151 333.217,289.183 325.829 C 288.335 323.720,288.560 321.600,290.249 315.754 L 292.388 308.350 295.560 310.425 C 299.653 313.102,302.690 318.959,303.897 326.500 C 304.539 330.516,306.698 336.006,310.425 343.105 C 315.559 352.883,322.005 368.289,323.979 375.500 C 324.431 377.150,325.991 382.970,327.445 388.434 C 328.899 393.897,331.378 401.322,332.953 404.934 C 336.962 414.126,340.556 426.774,342.472 438.430 C 343.370 443.891,344.259 448.616,344.449 448.930 C 345.030 449.890,348.812 477.835,349.939 489.500 C 351.350 504.089,351.286 521.997,349.797 529.205 C 348.283 536.534,349.537 541.849,354.941 551.000 C 359.492 558.708,360.477 564.363,360.166 581.000 C 359.959 592.040,358.552 605.249,355.531 624.500 C 352.741 642.276,352.715 643.203,353.481 696.000 C 353.729 713.047,354.832 717.889,362.643 736.212 C 365.115 742.010,371.766 753.540,375.145 757.885 C 376.661 759.834,377.000 759.952,377.000 758.529 C 377.000 757.571,375.650 755.083,374.000 753.000 C 372.350 750.917,371.000 748.896,371.000 748.510 C 371.000 748.125,370.153 746.614,369.118 745.154 C 366.517 741.485,357.997 720.483,356.885 715.000 C 354.200 701.754,353.821 630.462,356.450 633.061 C 358.190 634.780,358.971 634.030,357.896 631.671 C 357.104 629.933,357.379 625.558,358.978 614.421 C 361.503 596.832,363.053 572.864,361.944 568.547 C 361.513 566.871,360.918 563.318,360.622 560.652 C 360.296 557.724,358.907 553.962,357.113 551.152 C 355.479 548.593,353.206 544.109,352.061 541.186 C 350.061 536.081,350.042 535.628,351.585 529.686 C 352.854 524.801,353.088 520.240,352.698 508.000 C 352.202 492.433,349.845 467.394,348.085 459.000 C 347.566 456.525,346.194 449.100,345.035 442.500 C 342.261 426.692,339.529 416.604,334.827 404.805 C 332.703 399.473,330.089 391.823,329.020 387.805 C 323.971 368.837,321.131 361.074,313.359 345.000 C 309.005 335.994,306.655 329.828,306.299 326.477 C 305.781 321.585,305.904 321.290,311.018 315.169 C 313.906 311.713,319.696 306.262,323.885 303.056 C 341.823 289.327,345.366 282.957,339.547 274.898 C 326.061 256.220,323.344 251.288,322.468 243.895 C 321.499 235.712,318.205 226.468,312.706 216.500 C 305.102 202.715,305.070 202.644,304.029 197.154 C 302.134 187.162,298.150 181.741,283.244 168.872 C 270.280 157.680,265.962 152.347,261.251 141.707 C 259.253 137.193,256.868 132.375,255.952 131.000 C 255.035 129.625,252.353 124.519,249.991 119.653 C 247.628 114.787,243.851 108.262,241.597 105.153 C 239.342 102.044,236.255 97.667,234.735 95.426 C 233.216 93.186,230.142 90.324,227.904 89.066 C 225.667 87.809,221.023 84.008,217.584 80.620 C 211.444 74.569,211.321 74.343,210.721 67.915 C 209.252 52.183,202.543 35.645,193.514 25.500 C 190.088 21.650,186.357 16.700,185.223 14.500 C 184.089 12.300,180.960 8.138,178.270 5.250 L 173.379 0.000 166.940 0.116 C 163.398 0.180,159.600 0.409,158.500 0.626 M202.142 42.912 C 205.995 52.000,207.736 59.000,206.143 59.000 C 204.770 59.000,198.253 48.868,197.411 45.426 C 197.018 43.817,195.639 41.228,194.348 39.673 C 193.056 38.118,191.737 35.643,191.417 34.173 C 191.097 32.703,190.422 30.195,189.917 28.601 C 188.262 23.370,188.986 23.428,193.774 28.912 C 196.700 32.262,199.887 37.595,202.142 42.912 M135.698 37.250 C 136.268 39.587,137.100 42.400,137.547 43.500 C 138.049 44.734,137.334 44.296,135.680 42.356 C 134.024 40.412,133.000 38.025,133.000 36.106 C 133.000 31.648,134.487 32.279,135.698 37.250 M192.000 41.878 C 192.000 42.360,191.360 43.286,190.579 43.935 C 189.412 44.903,189.254 44.745,189.695 43.057 C 190.221 41.047,192.000 40.137,192.000 41.878 M189.000 47.500 C 189.000 47.775,188.775 48.000,188.500 48.000 C 188.225 48.000,188.000 47.775,188.000 47.500 C 188.000 47.225,188.225 47.000,188.500 47.000 C 188.775 47.000,189.000 47.225,189.000 47.500 M194.542 64.423 C 196.493 67.401,196.753 72.673,195.029 74.296 C 194.028 75.238,193.642 75.203,193.254 74.137 C 192.844 73.010,192.616 73.004,191.936 74.103 C 191.331 75.083,190.853 74.744,190.119 72.813 C 189.571 71.373,188.668 69.913,188.112 69.569 C 186.994 68.878,190.596 62.000,192.076 62.000 C 192.559 62.000,193.668 63.090,194.542 64.423 M192.158 68.000 C 192.158 69.375,192.385 69.938,192.662 69.250 C 192.940 68.563,192.940 67.438,192.662 66.750 C 192.385 66.063,192.158 66.625,192.158 68.000 M217.691 97.500 C 223.905 106.934,233.000 122.247,233.000 123.278 C 233.000 124.349,223.317 113.580,221.981 111.022 C 220.759 108.684,220.647 108.656,219.994 110.516 C 219.373 112.286,219.135 112.162,217.652 109.293 C 216.743 107.536,215.987 105.514,215.972 104.800 C 215.957 104.085,214.650 100.611,213.069 97.080 C 211.487 93.548,210.431 90.042,210.720 89.287 C 211.010 88.531,211.363 88.046,211.504 88.207 C 211.646 88.368,214.430 92.550,217.691 97.500 M229.511 102.053 C 231.498 104.289,231.498 104.290,229.489 103.238 C 228.383 102.659,226.583 101.178,225.489 99.947 C 223.502 97.711,223.502 97.710,225.511 98.762 C 226.617 99.341,228.417 100.822,229.511 102.053 M189.000 111.000 C 190.828 112.181,189.249 112.181,186.500 111.000 C 185.181 110.433,185.011 110.122,186.000 110.086 C 186.825 110.055,188.175 110.467,189.000 111.000 M192.500 113.000 C 192.840 113.550,192.893 114.000,192.618 114.000 C 192.343 114.000,191.840 113.550,191.500 113.000 C 191.160 112.450,191.107 112.000,191.382 112.000 C 191.657 112.000,192.160 112.450,192.500 113.000 M160.000 113.500 C 160.000 113.775,159.775 114.000,159.500 114.000 C 159.225 114.000,159.000 113.775,159.000 113.500 C 159.000 113.225,159.225 113.000,159.500 113.000 C 159.775 113.000,160.000 113.225,160.000 113.500 M201.000 114.000 C 201.000 114.550,199.623 115.000,197.941 115.000 C 196.156 115.000,195.139 114.583,195.500 114.000 C 195.840 113.450,197.216 113.000,198.559 113.000 C 199.902 113.000,201.000 113.450,201.000 114.000 M157.667 114.667 C 157.300 115.033,156.700 115.033,156.333 114.667 C 155.967 114.300,156.267 114.000,157.000 114.000 C 157.733 114.000,158.033 114.300,157.667 114.667 M213.000 119.847 C 213.000 120.312,214.597 122.337,216.548 124.347 C 220.205 128.112,220.081 129.146,216.292 126.492 C 213.899 124.816,210.627 119.000,212.077 119.000 C 212.584 119.000,213.000 119.381,213.000 119.847 M255.323 138.750 C 256.750 140.813,258.558 144.300,259.339 146.500 C 260.121 148.700,261.940 152.705,263.380 155.399 C 264.821 158.093,266.000 161.468,265.999 162.899 C 265.998 165.362,265.739 165.230,261.125 160.421 C 255.143 154.184,253.230 151.000,255.465 151.000 C 257.706 151.000,257.356 147.165,254.690 142.500 C 253.432 140.300,252.102 137.713,251.733 136.750 C 250.568 133.707,252.627 134.854,255.323 138.750 M216.191 143.750 C 222.099 150.084,222.737 157.131,217.972 163.428 C 216.337 165.589,215.000 168.416,215.000 169.710 C 215.000 171.005,214.332 173.662,213.516 175.615 C 212.171 178.834,211.756 179.105,209.075 178.516 C 206.036 177.849,202.000 179.300,202.000 181.061 C 202.000 181.606,203.328 181.365,204.950 180.526 C 208.991 178.436,209.981 178.666,207.139 181.033 C 205.434 182.454,203.281 183.000,199.389 183.000 L 194.000 183.000 194.000 179.559 C 194.000 177.666,193.550 175.840,193.000 175.500 C 191.662 174.673,191.725 173.000,193.094 173.000 C 193.695 173.000,194.412 173.860,194.687 174.911 C 195.135 176.625,195.480 176.495,198.016 173.661 L 200.845 170.500 198.673 169.285 C 197.478 168.617,194.839 168.055,192.809 168.035 C 188.494 167.994,186.971 166.456,190.235 165.437 C 191.481 165.048,192.746 164.350,193.047 163.885 C 193.348 163.420,195.320 164.213,197.431 165.647 C 200.257 167.567,202.648 168.286,206.510 168.377 C 211.310 168.490,211.836 168.277,212.750 165.855 C 213.298 164.400,213.396 162.641,212.967 161.947 C 212.538 161.252,212.665 159.634,213.250 158.351 C 213.957 156.799,213.987 155.286,213.340 153.835 C 212.394 151.717,212.285 151.760,209.564 155.327 C 208.023 157.347,205.953 159.000,204.963 159.000 C 202.484 159.000,200.000 157.961,200.000 156.924 C 200.000 156.451,200.687 156.326,201.526 156.648 C 202.508 157.025,204.870 155.416,208.154 152.132 C 212.632 147.654,213.182 146.661,212.653 144.015 C 211.905 140.273,212.880 140.200,216.191 143.750 M250.384 145.750 C 250.724 146.713,251.292 148.175,251.647 149.000 C 252.095 150.042,251.637 149.919,250.146 148.595 C 247.983 146.675,247.248 144.000,248.883 144.000 C 249.369 144.000,250.045 144.787,250.384 145.750 M192.559 150.532 C 191.491 151.339,190.168 152.000,189.618 152.000 C 189.068 152.000,189.491 151.339,190.559 150.532 C 191.626 149.724,192.950 149.064,193.500 149.064 C 194.050 149.064,193.626 149.724,192.559 150.532 M196.102 150.750 C 195.599 151.713,194.678 154.410,194.055 156.744 C 192.833 161.326,189.330 164.000,184.550 164.000 C 181.533 164.000,181.300 162.753,183.856 160.289 C 184.877 159.305,186.486 157.290,187.431 155.810 C 188.466 154.192,189.725 153.341,190.592 153.674 C 191.425 153.993,192.902 153.124,194.089 151.613 C 196.449 148.614,197.441 148.188,196.102 150.750 M147.819 156.541 C 148.402 160.594,149.190 161.862,153.286 165.333 C 158.049 169.369,158.086 169.380,160.940 167.694 C 162.518 166.762,164.575 166.000,165.511 166.000 C 166.653 166.000,167.014 165.479,166.607 164.418 C 166.273 163.548,166.000 162.198,166.000 161.418 C 166.000 160.502,164.914 160.000,162.930 160.000 C 160.319 160.000,159.909 159.664,160.180 157.750 C 160.666 154.329,164.078 154.428,167.462 157.960 C 169.064 159.632,171.040 161.000,171.854 161.000 C 172.668 161.000,173.049 161.284,172.702 161.631 C 172.355 161.979,172.551 163.161,173.138 164.259 C 173.945 165.765,173.875 166.465,172.853 167.112 C 171.748 167.812,171.775 167.996,173.000 168.116 C 173.825 168.197,172.925 168.542,171.000 168.882 C 167.789 169.449,167.474 169.818,167.184 173.349 C 166.914 176.634,166.576 177.122,164.877 176.678 C 163.252 176.253,163.102 176.418,164.059 177.571 C 165.439 179.234,171.646 181.049,174.476 180.618 C 175.771 180.420,176.913 181.206,177.792 182.900 C 179.023 185.272,178.919 185.653,176.520 187.566 C 174.046 189.538,173.936 190.014,174.427 196.574 L 174.946 203.500 173.008 196.000 C 171.246 189.177,170.577 188.048,165.602 183.500 C 162.595 180.750,159.404 177.011,158.511 175.192 C 157.607 173.348,154.915 170.692,152.432 169.192 C 147.066 165.951,144.358 160.234,145.445 154.441 C 146.298 149.893,146.945 150.465,147.819 156.541 M187.000 154.000 C 186.411 155.100,185.705 156.000,185.430 156.000 C 185.155 156.000,185.411 155.100,186.000 154.000 C 186.589 152.900,187.295 152.000,187.570 152.000 C 187.845 152.000,187.589 152.900,187.000 154.000 M155.000 156.500 C 155.000 156.775,154.775 157.000,154.500 157.000 C 154.225 157.000,154.000 156.775,154.000 156.500 C 154.000 156.225,154.225 156.000,154.500 156.000 C 154.775 156.000,155.000 156.225,155.000 156.500 M237.365 161.073 C 238.814 162.212,240.000 163.588,240.000 164.129 C 240.000 165.216,234.456 162.229,232.801 160.250 C 231.041 158.146,234.418 158.755,237.365 161.073 M209.500 161.000 C 211.190 161.726,211.009 161.870,208.332 161.930 C 203.976 162.026,202.000 162.924,202.000 164.807 C 202.000 166.093,201.759 166.155,200.750 165.129 C 199.747 164.109,199.967 163.477,201.861 161.929 C 204.388 159.864,206.312 159.630,209.500 161.000 M139.807 166.526 C 139.499 166.834,138.940 166.279,138.564 165.293 C 138.022 163.868,138.136 163.753,139.124 164.733 C 139.808 165.412,140.115 166.219,139.807 166.526 M169.000 166.500 C 169.000 166.775,169.225 167.000,169.500 167.000 C 169.775 167.000,170.000 166.775,170.000 166.500 C 170.000 166.225,169.775 166.000,169.500 166.000 C 169.225 166.000,169.000 166.225,169.000 166.500 M126.635 172.250 C 125.859 173.488,124.912 176.277,124.530 178.449 C 124.147 180.621,123.236 183.252,122.505 184.297 C 121.209 186.146,121.146 186.141,120.050 184.093 C 118.448 181.101,120.389 174.625,123.659 172.054 C 127.087 169.357,128.395 169.444,126.635 172.250 M206.029 171.961 C 203.558 173.524,205.312 173.898,208.500 172.489 C 210.821 171.462,211.048 171.148,209.500 171.097 C 208.400 171.060,206.838 171.449,206.029 171.961 M141.000 172.826 C 141.000 173.692,137.389 177.199,135.250 178.410 C 132.982 179.694,133.950 176.951,136.646 174.452 C 139.338 171.958,141.000 171.337,141.000 172.826 M179.000 179.500 C 179.000 179.775,178.775 180.000,178.500 180.000 C 178.225 180.000,178.000 179.775,178.000 179.500 C 178.000 179.225,178.225 179.000,178.500 179.000 C 178.775 179.000,179.000 179.225,179.000 179.500 M215.649 193.500 C 216.947 201.172,219.432 210.064,221.935 216.000 C 223.443 219.575,224.998 223.850,225.390 225.500 C 225.782 227.150,227.992 231.302,230.301 234.726 C 233.414 239.342,235.102 240.959,236.827 240.976 C 239.838 241.007,244.997 246.175,245.009 249.173 C 245.014 250.453,246.125 253.750,247.478 256.500 C 250.337 262.312,250.737 265.497,248.500 264.638 C 246.146 263.735,246.529 270.264,248.960 272.464 C 251.873 275.100,255.253 273.745,260.101 267.995 C 262.418 265.248,264.620 263.000,264.996 263.000 C 266.406 263.000,268.000 268.264,268.000 272.917 C 268.000 275.569,268.900 280.557,270.000 284.000 C 271.100 287.443,272.000 292.227,272.000 294.630 C 272.000 297.499,272.913 300.634,274.660 303.763 L 277.320 308.527 274.410 311.635 C 272.809 313.345,270.049 316.792,268.276 319.295 C 266.378 321.976,263.027 324.949,260.127 326.527 C 257.418 328.002,253.106 331.636,250.543 334.604 C 245.486 340.462,243.182 341.180,238.014 338.507 L 235.128 337.015 235.689 340.757 C 236.365 345.262,239.000 348.809,239.000 345.214 C 239.000 342.444,239.763 342.420,242.104 345.120 C 245.729 349.300,241.093 353.050,233.304 352.238 C 230.660 351.962,227.920 352.392,225.900 353.400 C 221.751 355.470,216.148 355.444,213.829 353.345 C 211.828 351.535,211.257 352.857,213.200 354.800 C 213.993 355.593,218.319 356.005,225.950 356.015 C 242.186 356.037,242.950 357.567,227.077 358.273 C 211.876 358.949,202.121 357.886,200.268 355.352 C 198.427 352.834,198.702 352.110,201.250 352.767 C 203.254 353.284,203.350 353.164,202.128 351.673 C 199.799 348.835,197.312 349.707,194.812 354.239 C 193.525 356.570,191.753 358.616,190.873 358.786 C 189.399 359.070,182.081 354.803,163.250 342.680 C 156.702 338.465,155.999 337.698,155.985 334.757 C 155.977 332.965,155.321 329.700,154.529 327.500 C 153.736 325.300,153.070 321.700,153.049 319.500 L 153.010 315.500 155.460 318.500 C 156.807 320.150,158.909 323.352,160.131 325.615 C 161.954 328.991,163.802 330.468,170.426 333.843 C 174.867 336.105,180.975 339.316,184.000 340.978 C 189.509 344.005,193.000 344.815,193.000 343.067 C 193.000 342.554,192.058 341.836,190.906 341.470 C 189.755 341.105,186.923 339.531,184.614 337.972 C 182.305 336.414,176.964 333.566,172.746 331.644 C 166.923 328.990,164.963 327.588,164.611 325.824 C 164.355 324.546,163.629 320.575,162.997 317.000 C 160.903 305.150,159.763 300.573,156.994 292.902 C 154.235 285.260,154.364 282.000,157.427 282.000 C 160.410 282.000,160.920 279.570,159.293 273.110 L 157.700 266.786 160.777 263.911 C 164.472 260.457,165.477 257.759,164.055 255.104 C 162.437 252.079,162.796 248.495,164.910 246.581 C 166.183 245.429,167.058 242.810,167.531 238.732 C 167.922 235.365,169.115 230.111,170.183 227.056 C 171.682 222.769,174.990 207.672,174.999 205.083 C 174.999 204.854,175.296 204.963,175.658 205.325 C 176.020 205.687,176.920 205.481,177.658 204.869 C 178.716 203.991,179.003 204.257,179.015 206.128 C 179.024 207.432,179.365 208.950,179.774 209.500 C 181.486 211.803,185.823 215.081,187.614 215.426 C 188.674 215.630,192.093 217.048,195.211 218.577 L 200.880 221.358 205.190 219.474 C 207.561 218.437,210.963 216.129,212.750 214.344 C 215.639 211.459,216.000 210.481,216.000 205.530 C 216.000 201.896,215.131 197.822,213.500 193.808 C 212.125 190.424,211.032 186.270,211.071 184.578 C 211.139 181.581,211.194 181.619,213.141 186.000 C 214.241 188.475,215.369 191.850,215.649 193.500 M200.873 193.453 C 200.704 198.621,200.585 198.854,198.597 197.898 C 197.257 197.254,197.493 197.662,199.250 199.028 C 200.780 200.218,202.000 202.150,202.000 203.383 C 202.000 205.684,200.311 208.000,198.633 208.000 C 198.102 208.000,197.963 207.704,198.325 207.342 C 198.687 206.980,198.481 206.080,197.869 205.342 C 196.553 203.757,190.245 203.576,186.460 205.015 C 183.977 205.959,183.890 206.187,185.220 208.265 C 188.476 213.354,188.070 214.476,184.320 210.756 C 181.221 207.683,180.545 206.304,180.545 203.057 C 180.545 200.267,180.031 198.867,178.799 198.301 C 177.240 197.586,177.406 197.080,180.348 193.591 C 183.804 189.492,187.057 188.410,196.775 188.125 L 201.051 188.000 200.873 193.453 M208.526 205.807 C 208.219 206.115,207.412 205.808,206.733 205.124 C 205.753 204.136,205.868 204.022,207.293 204.564 C 208.279 204.940,208.834 205.499,208.526 205.807 M111.000 217.686 C 111.000 219.032,106.624 223.000,105.139 223.000 C 104.091 223.000,104.509 222.078,106.500 220.000 C 109.255 217.124,111.000 216.227,111.000 217.686 M209.333 219.667 C 209.700 220.033,210.300 220.033,210.667 219.667 C 211.033 219.300,210.733 219.000,210.000 219.000 C 209.267 219.000,208.967 219.300,209.333 219.667 M211.406 226.750 C 213.728 230.326,213.826 231.125,213.531 244.000 C 213.361 251.425,212.722 258.767,212.111 260.315 C 210.349 264.780,210.617 266.256,212.929 264.812 C 215.120 263.444,217.000 259.829,217.000 256.985 C 217.000 255.928,218.238 254.367,219.750 253.516 L 222.500 251.967 219.057 252.234 L 215.614 252.500 215.470 242.000 C 215.316 230.854,214.698 227.564,212.227 224.750 C 209.459 221.598,208.917 222.916,211.406 226.750 M300.017 228.818 C 301.110 230.843,302.734 233.512,303.625 234.750 C 304.515 235.988,304.825 237.000,304.313 237.000 C 302.152 237.000,299.875 234.166,298.082 229.243 C 295.949 223.388,296.965 223.165,300.017 228.818 M197.000 227.933 C 191.651 230.099,190.931 232.069,194.609 234.480 C 197.149 236.144,197.270 236.146,196.643 234.513 C 196.116 233.138,196.344 232.935,197.739 233.536 C 198.707 233.954,200.963 234.789,202.750 235.392 C 204.537 235.996,206.000 236.829,206.000 237.245 C 206.000 237.660,206.623 238.000,207.383 238.000 C 210.772 238.000,209.600 228.927,205.961 226.979 C 203.505 225.665,202.283 225.795,197.000 227.933 M232.536 246.431 C 234.975 252.270,234.579 253.352,230.250 252.677 C 226.747 252.130,226.632 252.190,228.500 253.590 C 229.600 254.414,231.850 254.956,233.500 254.794 C 236.145 254.535,236.475 254.152,236.286 251.560 C 236.168 249.942,236.554 248.037,237.144 247.326 C 237.961 246.342,237.560 245.783,235.465 244.987 C 233.951 244.411,232.343 243.712,231.891 243.433 C 231.440 243.154,231.730 244.503,232.536 246.431 M72.250 246.053 C 76.887 247.340,76.956 248.448,73.003 258.146 C 71.355 262.191,70.005 265.564,70.003 265.643 C 69.981 266.563,66.413 266.758,65.374 265.896 C 64.351 265.046,62.082 265.042,56.460 265.878 C 46.884 267.303,45.700 267.295,46.615 265.814 C 47.018 265.162,44.536 266.601,41.098 269.012 C 33.732 274.179,25.378 282.942,20.402 290.721 C 16.920 296.164,7.364 307.000,6.046 307.000 C 5.681 307.000,4.564 306.402,3.565 305.671 C 2.098 304.598,1.959 303.945,2.846 302.287 C 3.451 301.157,4.448 296.918,5.061 292.866 C 6.212 285.268,7.931 280.967,14.069 270.334 C 17.814 263.845,29.175 253.312,34.642 251.259 C 42.786 248.200,49.235 246.609,56.000 245.989 C 67.503 244.935,68.236 244.938,72.250 246.053 M167.000 250.500 C 167.000 250.775,167.225 251.000,167.500 251.000 C 167.775 251.000,168.000 250.775,168.000 250.500 C 168.000 250.225,167.775 250.000,167.500 250.000 C 167.225 250.000,167.000 250.225,167.000 250.500 M295.496 264.988 C 297.607 270.973,297.504 275.244,295.258 274.811 C 294.299 274.627,293.264 273.356,292.957 271.988 C 292.420 269.598,291.705 267.861,286.474 256.248 L 284.109 250.997 289.050 255.861 C 291.908 258.673,294.626 262.522,295.496 264.988 M169.000 252.393 C 169.000 252.609,169.698 253.054,170.552 253.382 C 171.442 253.723,171.843 253.555,171.493 252.989 C 170.906 252.038,169.000 251.583,169.000 252.393 M194.291 254.519 C 197.011 256.912,199.208 257.249,201.750 255.662 C 202.438 255.233,203.000 254.455,203.000 253.933 C 203.000 253.410,202.144 253.518,201.098 254.171 C 199.570 255.125,198.693 255.029,196.633 253.679 C 192.758 251.140,191.119 251.728,194.291 254.519 M172.000 255.500 C 172.000 255.775,172.225 256.000,172.500 256.000 C 172.775 256.000,173.000 255.775,173.000 255.500 C 173.000 255.225,172.775 255.000,172.500 255.000 C 172.225 255.000,172.000 255.225,172.000 255.500 M222.195 259.526 C 220.505 261.924,217.632 264.655,215.811 265.595 C 212.052 267.536,204.842 274.413,203.138 277.684 C 202.512 278.886,202.000 281.007,202.000 282.399 C 202.000 285.234,198.273 288.097,197.583 285.793 C 195.773 279.754,194.888 274.887,195.167 272.520 C 195.490 269.788,196.286 269.018,200.500 267.355 C 202.050 266.744,201.543 266.490,198.250 266.226 C 195.502 266.005,194.000 265.405,194.000 264.526 C 194.000 262.591,195.789 262.167,201.500 262.749 C 205.631 263.169,206.283 263.027,205.250 261.929 C 204.563 261.198,204.000 259.480,204.000 258.111 L 204.000 255.623 201.961 257.811 C 199.542 260.407,199.023 260.454,194.346 258.500 C 188.580 256.091,187.194 256.549,190.334 259.826 C 193.040 262.651,193.040 262.654,191.021 264.481 C 188.467 266.792,188.461 269.045,191.000 272.273 C 195.032 277.399,191.768 279.027,187.173 274.181 C 179.446 266.033,175.844 261.721,175.074 259.694 C 174.580 258.394,173.283 257.372,172.006 257.275 C 170.162 257.137,169.910 257.473,170.485 259.304 C 170.865 260.512,171.248 262.400,171.338 263.500 C 171.427 264.600,172.726 266.274,174.224 267.219 C 175.722 268.165,177.588 270.473,178.372 272.347 C 179.155 274.222,180.272 276.050,180.854 276.410 C 181.436 276.769,182.444 279.768,183.094 283.073 C 184.073 288.049,184.897 289.594,187.888 292.059 C 191.212 294.800,191.600 294.900,192.750 293.327 C 193.838 291.839,193.998 292.062,193.985 295.059 C 193.973 297.649,193.730 298.129,193.000 297.000 C 192.220 295.793,192.028 295.951,192.015 297.809 C 192.005 299.302,192.408 299.866,193.155 299.405 C 193.870 298.962,194.038 299.130,193.595 299.845 C 193.203 300.480,192.303 301.000,191.596 301.000 C 190.889 301.000,189.512 301.882,188.536 302.960 C 187.560 304.038,186.410 304.826,185.981 304.710 C 185.096 304.472,184.994 304.897,185.015 308.750 L 185.029 311.500 186.293 309.000 C 187.065 307.470,189.097 306.006,191.528 305.227 C 195.441 303.974,199.985 299.692,199.995 297.250 C 199.998 296.563,200.675 296.000,201.500 296.000 C 202.933 296.000,203.472 294.244,203.035 291.000 C 202.688 288.424,201.304 287.769,198.857 289.024 C 196.757 290.102,196.664 290.069,198.000 288.724 C 198.825 287.894,200.463 286.927,201.641 286.575 C 203.396 286.050,203.981 286.507,204.891 289.117 C 206.381 293.391,206.287 295.856,204.570 297.573 C 203.512 298.631,203.371 299.807,204.028 302.098 C 205.627 307.673,206.449 308.042,212.521 305.908 C 215.507 304.859,218.851 304.000,219.952 304.000 C 223.484 304.000,225.252 299.890,224.204 294.121 C 223.449 289.969,223.619 288.332,225.165 284.881 C 227.206 280.321,229.556 262.351,228.606 258.565 C 227.599 254.554,225.475 254.872,222.195 259.526 M238.828 257.979 C 234.186 259.380,234.040 259.820,236.662 264.512 C 239.469 269.534,239.662 269.626,242.777 267.443 C 245.608 265.460,245.610 264.319,242.781 264.421 C 239.919 264.523,239.248 261.488,241.567 258.926 C 243.435 256.862,243.012 256.715,238.828 257.979 M243.000 271.500 C 241.625 272.286,239.488 272.945,238.250 272.965 C 235.511 273.008,235.385 274.133,237.866 276.378 C 239.289 277.666,240.711 277.910,243.866 277.406 C 249.212 276.551,249.113 277.414,243.586 279.859 C 237.821 282.409,236.392 285.027,237.942 290.200 C 239.093 294.043,240.802 295.566,243.101 294.800 C 243.911 294.530,243.801 293.943,242.739 292.882 C 239.710 289.853,242.895 282.114,248.049 279.980 C 251.658 278.485,251.826 276.698,248.500 275.182 C 246.248 274.156,245.534 272.949,245.882 270.750 C 246.034 269.786,245.968 269.803,243.000 271.500 M261.607 273.582 C 260.607 276.189,260.886 284.515,261.938 283.450 C 263.338 282.033,264.475 272.000,263.236 272.000 C 262.674 272.000,261.941 272.712,261.607 273.582 M296.411 282.077 C 299.673 285.953,299.992 291.507,296.999 292.290 C 295.898 292.578,295.249 292.405,295.558 291.907 C 295.866 291.408,295.714 291.000,295.220 291.000 C 293.797 291.000,292.000 286.231,292.000 282.453 C 292.000 278.193,293.067 278.102,296.411 282.077 M221.000 287.923 C 221.000 288.431,219.869 290.190,218.487 291.833 C 216.339 294.386,216.246 294.748,217.849 294.329 C 219.024 294.022,219.971 294.482,220.386 295.563 C 221.352 298.082,220.768 298.176,216.780 296.143 L 213.196 294.316 216.547 290.658 C 219.970 286.922,221.000 286.289,221.000 287.923 M235.030 297.500 C 235.031 299.882,236.555 302.574,237.214 301.357 C 237.469 300.886,237.082 299.375,236.354 298.000 C 235.196 295.815,235.030 295.752,235.030 297.500 M292.499 303.009 C 291.742 308.510,290.255 310.432,285.073 312.611 C 281.010 314.320,281.173 312.828,285.432 309.317 C 289.096 306.297,291.000 302.506,291.000 298.235 C 291.000 296.309,291.298 295.898,292.107 296.707 C 292.827 297.427,292.964 299.627,292.499 303.009 M171.000 297.500 C 171.000 297.775,171.225 298.000,171.500 298.000 C 171.775 298.000,172.000 297.775,172.000 297.500 C 172.000 297.225,171.775 297.000,171.500 297.000 C 171.225 297.000,171.000 297.225,171.000 297.500 M239.675 304.476 C 238.121 306.935,237.101 309.355,237.409 309.853 C 238.305 311.302,241.993 311.939,242.060 310.656 C 242.092 310.020,242.471 307.363,242.901 304.750 C 243.331 302.137,243.417 300.001,243.091 300.002 C 242.766 300.003,241.229 302.016,239.675 304.476 M271.049 304.500 C 271.066 306.825,273.681 310.652,274.614 309.719 C 274.964 309.370,274.301 307.602,273.142 305.792 C 271.473 303.186,271.037 302.917,271.049 304.500 M186.000 305.500 C 186.000 305.775,185.775 306.000,185.500 306.000 C 185.225 306.000,185.000 305.775,185.000 305.500 C 185.000 305.225,185.225 305.000,185.500 305.000 C 185.775 305.000,186.000 305.225,186.000 305.500 M235.000 314.500 C 235.000 314.775,235.225 315.000,235.500 315.000 C 235.775 315.000,236.000 314.775,236.000 314.500 C 236.000 314.225,235.775 314.000,235.500 314.000 C 235.225 314.000,235.000 314.225,235.000 314.500 M239.729 315.746 C 237.779 317.901,237.519 324.771,239.217 329.276 C 240.073 331.544,239.921 332.457,238.389 334.276 C 236.747 336.224,236.855 336.199,239.257 334.076 C 241.031 332.508,242.000 330.651,242.000 328.819 C 242.000 326.137,243.287 324.504,248.500 320.572 C 250.460 319.094,250.451 319.063,248.038 319.032 C 246.616 319.013,244.705 317.909,243.517 316.418 C 241.501 313.890,241.422 313.876,239.729 315.746 M147.000 330.500 C 147.000 330.775,146.775 331.000,146.500 331.000 C 146.225 331.000,146.000 330.775,146.000 330.500 C 146.000 330.225,146.225 330.000,146.500 330.000 C 146.775 330.000,147.000 330.225,147.000 330.500 M145.693 335.731 C 145.439 336.704,145.215 336.150,145.195 334.500 C 145.175 332.850,145.382 332.054,145.656 332.731 C 145.930 333.408,145.947 334.758,145.693 335.731 M209.253 335.250 C 205.517 337.862,205.000 339.549,208.250 338.523 C 209.488 338.133,211.727 337.581,213.226 337.296 C 215.541 336.858,215.800 336.495,214.941 334.890 C 213.654 332.485,213.164 332.516,209.253 335.250 M225.039 336.628 C 224.998 338.858,227.660 346.000,228.532 346.000 C 229.204 346.000,227.998 341.248,226.376 337.500 C 225.310 335.034,225.071 334.879,225.039 336.628 M251.434 342.338 C 248.171 348.177,246.382 349.415,248.487 344.377 C 250.054 340.626,252.985 336.652,253.675 337.342 C 253.870 337.537,252.862 339.785,251.434 342.338 M216.000 338.500 C 216.000 338.775,216.225 339.000,216.500 339.000 C 216.775 339.000,217.000 338.775,217.000 338.500 C 217.000 338.225,216.775 338.000,216.500 338.000 C 216.225 338.000,216.000 338.225,216.000 338.500 M159.020 366.000 C 159.039 366.825,160.380 369.075,162.000 371.000 C 164.495 373.964,164.961 374.194,165.041 372.500 C 165.127 370.668,165.230 370.696,166.254 372.826 C 167.124 374.634,167.074 375.336,166.027 375.983 C 163.722 377.408,161.944 375.952,155.877 367.669 L 150.000 359.646 150.000 350.990 C 150.000 346.229,150.318 342.016,150.706 341.627 C 151.401 340.932,158.954 363.074,159.020 366.000 M170.031 341.750 C 170.127 344.073,188.407 354.768,189.436 353.103 C 190.121 351.995,189.291 351.379,179.412 345.672 C 171.191 340.923,169.976 340.415,170.031 341.750 M260.042 348.455 C 257.979 350.652,257.948 350.826,259.706 350.367 C 261.246 349.964,262.022 350.783,263.503 354.376 C 264.528 356.860,265.733 358.665,266.183 358.387 C 267.797 357.389,266.955 352.328,264.657 349.213 L 262.314 346.037 260.042 348.455 M246.345 350.543 C 246.019 351.392,245.538 351.872,245.276 351.610 C 245.014 351.348,245.096 350.653,245.459 350.067 C 246.445 348.471,247.021 348.781,246.345 350.543 M295.000 351.441 C 295.000 352.234,295.450 353.160,296.000 353.500 C 296.550 353.840,297.000 353.191,297.000 352.059 C 297.000 350.927,296.550 350.000,296.000 350.000 C 295.450 350.000,295.000 350.648,295.000 351.441 M288.000 353.500 C 288.000 353.775,288.225 354.000,288.500 354.000 C 288.775 354.000,289.000 353.775,289.000 353.500 C 289.000 353.225,288.775 353.000,288.500 353.000 C 288.225 353.000,288.000 353.225,288.000 353.500 M265.488 362.500 C 265.694 364.150,265.893 366.314,265.931 367.309 C 266.030 369.916,268.000 368.319,268.000 365.632 C 268.000 364.395,267.351 362.509,266.557 361.441 C 265.201 359.617,265.137 359.681,265.488 362.500 M204.500 363.481 C 207.800 364.840,211.625 365.981,213.000 366.017 C 215.462 366.080,215.447 366.127,212.038 369.041 C 207.866 372.607,204.233 372.821,198.886 369.816 C 194.861 367.554,193.814 364.586,196.200 362.200 C 197.757 360.643,197.523 360.607,204.500 363.481 M228.521 364.024 C 229.879 365.523,230.061 366.339,229.227 367.173 C 228.393 368.007,226.889 367.774,223.420 366.272 C 219.248 364.466,218.943 364.127,220.619 363.153 C 223.519 361.469,226.507 361.798,228.521 364.024 M132.079 370.583 C 132.127 371.748,132.364 371.985,132.683 371.188 C 132.972 370.466,132.936 369.603,132.604 369.271 C 132.272 368.939,132.036 369.529,132.079 370.583 M293.134 372.604 C 294.409 375.476,298.334 381.000,299.099 381.000 C 300.254 381.000,300.233 380.594,298.932 377.797 C 297.951 375.689,292.227 370.562,293.134 372.604 M313.000 375.500 C 313.000 375.775,313.225 376.000,313.500 376.000 C 313.775 376.000,314.000 375.775,314.000 375.500 C 314.000 375.225,313.775 375.000,313.500 375.000 C 313.225 375.000,313.000 375.225,313.000 375.500 M171.082 385.609 C 172.372 387.173,172.312 387.228,170.418 386.218 C 169.273 385.608,167.698 384.336,166.918 383.391 C 165.628 381.827,165.688 381.772,167.582 382.782 C 168.727 383.392,170.302 384.664,171.082 385.609 M129.979 386.526 C 127.906 389.023,129.378 390.324,131.934 388.255 C 133.925 386.642,134.053 386.234,132.727 385.726 C 131.858 385.392,130.621 385.752,129.979 386.526 M226.000 387.965 C 226.000 388.495,227.012 389.461,228.250 390.110 C 230.488 391.285,230.490 391.280,228.595 389.146 C 226.479 386.762,226.000 386.544,226.000 387.965 M189.422 398.914 C 192.770 402.614,190.494 402.107,186.932 398.360 C 184.817 396.135,184.272 395.145,185.511 395.782 C 186.617 396.350,188.377 397.759,189.422 398.914 M127.345 402.543 C 127.019 403.392,126.976 404.310,127.249 404.583 C 127.523 404.856,127.986 404.161,128.279 403.040 C 128.903 400.657,128.210 400.289,127.345 402.543 M304.226 404.179 C 304.968 406.404,307.840 407.560,309.214 406.186 C 310.240 405.160,310.197 404.736,308.992 403.974 C 306.881 402.640,303.758 402.774,304.226 404.179 M289.592 407.852 C 289.000 408.810,296.884 411.449,297.751 410.582 C 298.057 410.277,296.677 409.345,294.686 408.513 C 290.466 406.750,290.287 406.727,289.592 407.852 M184.000 414.500 C 184.000 414.775,184.225 415.000,184.500 415.000 C 184.775 415.000,185.000 414.775,185.000 414.500 C 185.000 414.225,184.775 414.000,184.500 414.000 C 184.225 414.000,184.000 414.225,184.000 414.500 M183.396 419.795 C 184.007 423.884,183.940 424.038,182.004 423.002 C 180.344 422.114,179.864 422.243,179.391 423.707 C 179.073 424.693,178.361 426.710,177.810 428.190 C 176.491 431.728,177.255 432.745,183.373 435.593 C 189.460 438.428,193.517 438.790,192.607 436.418 C 192.273 435.548,192.000 433.987,192.000 432.950 C 192.000 431.602,191.525 431.245,190.340 431.700 C 189.235 432.124,187.950 431.421,186.497 429.599 C 184.578 427.191,184.441 426.388,185.366 422.925 C 186.266 419.551,186.154 418.738,184.585 417.244 C 182.820 415.563,182.777 415.656,183.396 419.795 M174.000 420.972 C 174.000 422.328,175.777 423.170,176.425 422.121 C 176.735 421.620,176.316 420.952,175.494 420.636 C 174.672 420.321,174.000 420.472,174.000 420.972 M188.667 421.667 C 187.684 422.650,187.856 427.000,188.878 427.000 C 189.360 427.000,190.311 426.331,190.989 425.513 C 192.951 423.149,190.780 419.553,188.667 421.667 M303.000 426.001 C 301.910 426.705,301.858 426.974,302.809 426.985 C 303.529 426.993,303.871 427.399,303.570 427.887 C 302.726 429.252,305.771 431.302,307.601 430.600 C 309.043 430.046,309.064 429.728,307.778 427.793 C 306.012 425.133,304.957 424.737,303.000 426.001 M159.219 427.236 C 157.820 428.921,155.559 439.893,156.431 440.765 C 156.744 441.077,157.000 440.560,157.000 439.616 C 157.000 438.595,158.433 437.299,160.532 436.422 C 163.902 435.014,164.218 435.065,167.445 437.526 C 169.305 438.944,171.090 440.793,171.413 441.634 C 172.348 444.071,172.093 448.000,171.000 448.000 C 170.450 448.000,170.000 446.735,170.000 445.189 C 170.000 439.470,162.272 435.557,158.930 439.584 C 157.143 441.737,158.791 444.189,162.707 445.204 C 164.380 445.637,166.310 446.669,166.997 447.496 C 168.555 449.374,167.857 449.385,163.468 447.551 C 160.648 446.373,160.000 446.350,160.000 447.429 C 160.000 450.264,162.729 451.105,170.162 450.560 C 175.543 450.165,177.028 450.301,175.730 451.072 C 174.756 451.649,173.069 451.839,171.980 451.494 C 170.805 451.121,170.000 451.324,170.000 451.994 C 170.000 452.615,172.665 454.333,175.922 455.812 C 179.180 457.290,181.962 458.950,182.105 459.500 C 182.249 460.050,183.410 461.321,184.686 462.325 C 187.735 464.723,188.183 463.521,187.797 453.975 L 187.500 446.637 181.102 444.038 C 177.583 442.608,174.038 440.437,173.225 439.213 C 171.818 437.094,172.054 437.129,178.124 439.939 C 181.631 441.563,185.738 443.190,187.250 443.554 C 191.677 444.621,190.467 442.347,185.750 440.737 C 183.412 439.939,179.840 438.209,177.811 436.893 C 175.782 435.577,171.590 432.992,168.496 431.148 C 165.402 429.305,163.028 427.639,163.221 427.445 C 163.415 427.252,165.962 427.794,168.883 428.650 C 172.706 429.771,174.497 429.903,175.280 429.120 C 177.005 427.395,175.687 426.898,167.825 426.303 C 162.015 425.864,160.194 426.061,159.219 427.236 M333.086 432.500 C 333.116 433.600,333.527 435.400,334.000 436.500 C 334.787 438.332,334.864 438.290,334.914 436.000 C 334.945 434.625,334.533 432.825,334.000 432.000 C 333.200 430.762,333.040 430.849,333.086 432.500 M312.000 441.000 C 312.000 441.733,312.300 442.033,312.667 441.667 C 313.033 441.300,313.033 440.700,312.667 440.333 C 312.300 439.967,312.000 440.267,312.000 441.000 M133.607 443.582 C 132.643 446.094,132.903 451.000,134.000 451.000 C 134.550 451.000,135.000 448.975,135.000 446.500 C 135.000 441.767,134.614 440.958,133.607 443.582 M156.000 446.000 C 156.000 446.733,156.300 447.033,156.667 446.667 C 157.033 446.300,157.033 445.700,156.667 445.333 C 156.300 444.967,156.000 445.267,156.000 446.000 M186.263 450.863 C 186.870 451.470,187.130 452.203,186.841 452.492 C 186.186 453.147,174.000 446.934,174.000 445.945 C 174.000 445.044,184.758 449.358,186.263 450.863 M328.118 448.309 C 328.053 449.304,327.555 449.843,327.011 449.507 C 325.913 448.828,326.759 451.782,328.198 453.654 C 328.687 454.289,328.818 455.876,328.491 457.181 C 328.054 458.922,328.574 460.191,330.448 461.951 C 333.781 465.082,334.105 472.293,331.000 474.232 C 329.778 474.995,329.053 476.457,329.136 477.991 C 329.258 480.233,329.317 480.269,329.696 478.327 C 329.950 477.023,331.300 475.742,333.073 475.125 C 336.632 473.884,337.559 471.913,335.975 468.953 C 335.060 467.245,335.077 466.225,336.047 464.411 C 337.718 461.289,335.410 455.011,331.963 453.300 C 330.593 452.620,329.220 450.840,328.868 449.289 C 328.521 447.754,328.183 447.314,328.118 448.309 M233.015 454.715 C 233.007 455.933,232.100 457.411,231.000 458.000 C 229.900 458.589,228.998 458.717,228.996 458.285 C 228.994 457.853,228.070 459.013,226.942 460.863 C 224.173 465.405,225.046 465.777,229.433 461.925 C 233.947 457.961,235.145 455.843,233.946 453.946 C 233.232 452.818,233.027 452.986,233.015 454.715 M312.000 454.469 C 312.000 455.363,312.586 455.712,313.500 455.362 C 314.325 455.045,315.000 454.384,315.000 453.893 C 315.000 453.402,314.325 453.000,313.500 453.000 C 312.675 453.000,312.000 453.661,312.000 454.469 M225.000 454.500 C 225.000 454.775,225.225 455.000,225.500 455.000 C 225.775 455.000,226.000 454.775,226.000 454.500 C 226.000 454.225,225.775 454.000,225.500 454.000 C 225.225 454.000,225.000 454.225,225.000 454.500 M316.000 454.500 C 316.000 454.775,316.225 455.000,316.500 455.000 C 316.775 455.000,317.000 454.775,317.000 454.500 C 317.000 454.225,316.775 454.000,316.500 454.000 C 316.225 454.000,316.000 454.225,316.000 454.500 M312.032 459.553 C 310.125 461.393,308.823 463.157,309.140 463.473 C 309.784 464.117,316.000 458.079,316.000 456.810 C 316.000 455.726,316.002 455.724,312.032 459.553 M280.306 458.645 C 279.587 460.518,282.371 463.000,285.191 463.000 C 287.264 463.000,287.639 460.039,285.800 458.200 C 284.077 456.477,281.044 456.722,280.306 458.645 M314.643 462.500 C 313.818 463.325,312.730 464.000,312.226 464.000 C 311.722 464.000,310.495 464.900,309.500 466.000 C 308.505 467.100,308.135 468.000,308.678 468.000 C 309.800 468.000,317.868 461.106,316.821 461.042 C 316.448 461.019,315.468 461.675,314.643 462.500 M340.731 467.080 C 341.085 468.432,341.538 468.886,341.788 468.137 C 342.028 467.415,341.750 466.350,341.168 465.768 C 340.426 465.026,340.296 465.417,340.731 467.080 M327.000 470.500 C 327.000 470.775,327.225 471.000,327.500 471.000 C 327.775 471.000,328.000 470.775,328.000 470.500 C 328.000 470.225,327.775 470.000,327.500 470.000 C 327.225 470.000,327.000 470.225,327.000 470.500 M232.050 473.177 C 230.014 475.362,229.942 476.772,231.928 475.544 C 233.124 474.805,235.340 471.000,234.574 471.000 C 234.301 471.000,233.165 471.980,232.050 473.177 M296.150 472.319 C 295.237 473.419,295.302 474.005,296.440 474.950 C 298.537 476.690,301.500 475.833,301.500 473.486 C 301.500 471.065,297.852 470.269,296.150 472.319 M224.336 475.250 C 227.158 478.149,227.537 478.290,227.845 476.556 C 228.224 474.419,225.596 472.000,222.895 472.000 C 221.559 472.000,221.884 472.732,224.336 475.250 M245.000 472.500 C 245.000 472.775,245.225 473.000,245.500 473.000 C 245.775 473.000,246.000 472.775,246.000 472.500 C 246.000 472.225,245.775 472.000,245.500 472.000 C 245.225 472.000,245.000 472.225,245.000 472.500 M175.000 475.000 C 173.781 475.788,173.910 475.972,175.691 475.985 C 176.896 475.993,178.148 476.430,178.473 476.956 C 179.296 478.287,182.000 477.089,182.000 475.393 C 182.000 473.777,177.301 473.513,175.000 475.000 M120.796 477.750 C 120.295 479.603,119.487 480.000,116.216 480.000 C 110.692 480.000,109.648 481.577,111.164 487.635 C 111.965 490.837,113.712 493.910,116.276 496.625 C 119.550 500.092,120.142 501.368,119.989 504.625 C 119.575 513.408,120.049 529.284,120.706 528.628 C 121.094 528.240,121.484 522.877,121.574 516.711 C 121.664 510.545,122.049 500.775,122.430 495.000 C 123.128 484.428,122.055 473.099,120.796 477.750 M236.989 481.250 C 235.166 484.240,234.410 487.000,235.415 487.000 C 235.642 487.000,236.961 484.975,238.344 482.500 C 241.205 477.381,240.016 476.285,236.989 481.250 M326.405 481.155 C 325.962 481.870,326.130 482.038,326.845 481.595 C 327.480 481.203,328.000 480.684,328.000 480.441 C 328.000 479.607,327.117 480.002,326.405 481.155 M269.691 483.305 C 269.134 485.372,269.510 487.135,271.119 489.998 C 273.280 493.843,273.283 493.917,271.402 496.594 C 270.356 498.083,268.690 500.696,267.701 502.401 C 266.712 504.105,264.479 506.738,262.739 508.250 C 260.999 509.762,259.918 511.000,260.337 511.000 C 262.108 511.000,266.970 507.854,268.806 505.520 C 270.244 503.691,271.740 503.000,274.259 503.000 C 277.669 503.000,283.000 499.870,283.000 497.868 C 283.000 497.326,282.480 497.203,281.845 497.595 C 281.120 498.044,280.963 497.869,281.423 497.124 C 281.902 496.350,283.394 496.171,285.723 496.608 C 288.134 497.060,289.076 496.933,288.632 496.214 C 288.271 495.630,288.769 494.945,289.738 494.692 C 290.707 494.439,289.573 494.180,287.218 494.116 C 279.379 493.904,271.625 488.651,270.809 483.000 L 270.448 480.500 269.691 483.305 M127.564 484.707 C 127.022 486.132,127.136 486.247,128.124 485.267 C 128.808 484.588,129.115 483.781,128.807 483.474 C 128.499 483.166,127.940 483.721,127.564 484.707 M239.526 487.950 C 237.831 491.228,237.534 494.000,238.878 494.000 C 240.343 494.000,241.953 491.485,242.619 488.155 C 243.431 484.093,241.583 483.971,239.526 487.950 M252.633 489.114 C 251.404 490.869,251.404 491.971,252.634 497.245 C 253.552 501.179,253.706 503.564,253.066 503.959 C 251.644 504.838,252.961 509.000,254.662 509.000 C 256.250 509.000,261.000 504.621,261.000 503.157 C 261.000 502.643,260.275 502.285,259.388 502.361 C 256.559 502.605,255.410 499.520,256.849 495.540 C 258.973 489.668,255.719 484.708,252.633 489.114 M337.674 487.750 C 337.430 488.163,336.932 490.305,336.568 492.511 C 336.019 495.834,336.287 496.931,338.135 498.915 L 340.365 501.308 341.684 497.404 C 342.410 495.257,343.506 492.530,344.120 491.345 C 344.734 490.160,344.931 488.698,344.559 488.095 C 343.798 486.864,338.360 486.591,337.674 487.750 M243.669 494.359 C 241.681 496.785,238.805 499.080,237.278 499.459 C 235.750 499.838,233.522 501.061,232.327 502.176 C 230.702 503.693,228.756 504.216,224.620 504.248 C 219.608 504.287,219.177 504.461,220.048 506.090 C 221.161 508.169,223.000 509.520,223.000 508.259 C 223.000 507.787,222.460 506.860,221.800 506.200 C 220.328 504.728,221.463 504.642,224.055 506.030 C 226.937 507.572,229.289 512.806,228.615 516.175 C 227.904 519.729,222.093 527.176,220.702 526.316 C 220.146 525.972,219.989 526.173,220.353 526.762 C 221.533 528.671,219.163 532.921,216.553 533.576 C 213.180 534.423,204.633 532.286,201.484 529.809 C 198.113 527.157,195.000 520.882,195.000 516.740 C 195.000 513.554,193.560 511.000,191.765 511.000 C 191.305 511.000,191.487 512.013,192.168 513.250 C 192.912 514.602,193.469 519.980,193.564 526.731 C 193.728 538.288,194.561 541.000,197.948 541.000 C 200.484 541.000,204.000 545.250,204.000 548.314 C 204.000 551.406,204.271 551.511,207.285 549.586 C 209.720 548.031,217.186 548.778,224.594 551.318 C 230.946 553.495,252.060 552.777,259.465 550.131 C 266.513 547.613,269.307 547.460,271.000 549.500 C 272.838 551.715,274.000 551.328,274.000 548.500 C 274.000 546.425,274.479 546.000,276.818 546.000 C 278.369 546.000,281.964 546.691,284.808 547.536 C 288.605 548.663,290.133 549.660,290.556 551.286 C 290.872 552.504,292.218 554.302,293.547 555.282 C 295.864 556.992,295.939 556.992,295.399 555.282 C 294.903 553.711,294.995 553.681,296.168 555.023 C 296.901 555.861,298.788 557.541,300.363 558.756 C 304.129 561.663,309.965 569.929,309.361 571.503 C 309.099 572.184,309.508 572.981,310.269 573.273 C 311.031 573.565,312.453 575.899,313.431 578.458 C 315.058 582.719,315.074 583.261,313.618 584.870 C 312.577 586.020,312.367 586.967,313.009 587.609 C 313.549 588.149,314.267 592.170,314.605 596.545 C 314.943 600.920,315.868 606.497,316.662 608.938 C 317.455 611.379,318.300 617.679,318.541 622.938 C 318.781 628.197,319.418 635.875,319.958 640.000 C 320.497 644.125,320.952 652.507,320.969 658.626 C 320.997 668.625,320.727 670.346,318.304 675.626 C 315.967 680.720,315.602 682.828,315.554 691.500 C 315.515 698.662,316.010 702.961,317.296 706.648 C 318.936 711.346,318.972 712.495,317.710 719.802 C 316.571 726.400,316.556 728.222,317.628 730.154 C 318.344 731.444,318.945 733.682,318.965 735.128 C 318.984 736.573,319.731 738.362,320.625 739.103 C 322.019 740.261,322.177 742.224,321.736 752.976 C 321.415 760.822,320.622 767.134,319.612 769.876 C 318.725 772.282,318.000 776.139,318.000 778.445 C 318.000 782.145,318.633 783.308,323.372 788.319 C 328.980 794.250,332.372 795.509,333.290 792.000 C 333.944 789.499,335.948 789.466,340.193 791.884 C 342.012 792.920,345.424 794.052,347.776 794.400 C 351.498 794.950,352.152 794.764,352.817 792.966 C 353.513 791.084,353.733 791.217,355.275 794.450 C 356.925 797.910,360.000 799.346,360.000 796.655 C 360.000 793.742,363.760 791.706,367.914 792.370 C 372.443 793.094,372.904 792.661,374.699 786.000 C 376.387 779.735,376.289 778.009,374.000 773.739 C 371.135 768.394,371.390 766.195,374.468 769.694 C 376.673 772.200,376.939 772.287,376.955 770.500 C 376.997 765.808,375.825 763.882,373.119 764.196 C 369.672 764.596,369.260 767.630,371.941 772.883 C 374.325 777.557,374.473 780.057,372.670 785.231 C 370.977 790.094,370.720 790.285,367.718 788.917 C 365.891 788.085,364.858 786.494,364.044 783.259 C 363.420 780.784,361.196 776.225,359.100 773.129 C 357.004 770.033,354.516 765.996,353.571 764.157 C 352.626 762.318,351.625 761.041,351.347 761.319 C 350.819 761.848,352.527 768.230,356.677 781.233 C 358.193 785.982,358.876 789.816,358.446 791.170 C 357.816 793.155,357.627 793.211,356.546 791.733 C 355.614 790.458,354.023 790.163,349.423 790.414 C 342.597 790.787,339.236 789.625,340.998 787.503 C 341.896 786.421,341.553 786.079,339.312 785.822 C 336.581 785.509,336.492 785.310,336.208 778.907 C 335.987 773.921,336.292 772.003,337.458 771.035 C 339.604 769.254,339.383 765.656,336.994 763.494 C 334.271 761.030,333.354 762.325,334.865 766.503 C 335.958 769.526,335.852 770.547,334.009 774.713 C 332.589 777.922,332.079 780.616,332.441 782.986 C 332.760 785.072,332.425 787.482,331.616 788.916 L 330.252 791.331 327.161 787.064 C 325.461 784.717,323.799 781.943,323.468 780.899 C 323.136 779.854,322.494 779.000,322.041 779.000 C 320.565 779.000,319.970 774.208,321.087 771.319 C 322.312 768.154,324.491 732.157,323.517 731.183 C 323.173 730.839,322.490 731.207,322.000 732.000 C 320.171 734.959,319.498 731.468,319.430 718.664 C 319.392 711.424,318.827 703.588,318.175 701.251 C 315.748 692.547,316.823 682.188,321.003 673.993 C 323.109 669.867,323.868 654.128,322.555 641.815 C 321.682 633.624,322.468 628.684,324.037 632.500 C 324.489 633.600,324.891 636.049,324.930 637.941 C 324.996 641.186,325.084 641.271,326.468 639.441 C 328.241 637.097,328.470 626.907,326.935 618.607 C 326.047 613.801,326.129 612.451,327.435 610.459 C 329.539 607.247,329.405 603.714,327.000 599.000 C 324.897 594.878,324.384 590.499,325.895 589.565 C 326.388 589.260,327.093 589.796,327.462 590.756 C 328.101 592.414,328.183 592.414,329.113 590.757 C 329.845 589.453,329.431 587.885,327.469 584.537 C 324.611 579.661,324.799 576.713,328.078 574.958 C 329.651 574.117,330.468 574.402,332.375 576.459 C 335.381 579.703,336.793 579.672,337.629 576.342 C 338.258 573.837,338.373 573.790,339.648 575.533 C 340.392 576.550,341.000 578.421,341.000 579.691 C 341.000 581.060,341.601 582.000,342.475 582.000 C 343.646 582.000,343.749 581.470,342.975 579.435 C 341.463 575.457,341.807 572.835,344.171 570.318 C 346.868 567.447,345.909 566.260,342.254 567.945 C 340.739 568.644,337.475 569.791,335.000 570.495 C 332.525 571.199,329.117 572.344,327.426 573.040 C 325.676 573.760,323.174 574.009,321.616 573.618 C 319.255 573.026,318.921 572.495,319.189 569.756 C 319.424 567.353,320.473 565.910,323.500 563.824 C 328.100 560.653,330.607 560.335,333.115 562.604 C 335.343 564.620,344.467 565.267,342.828 563.293 C 342.238 562.582,341.183 562.000,340.485 562.000 C 339.786 562.000,338.955 561.325,338.638 560.500 C 338.322 559.675,336.897 559.000,335.472 559.000 C 332.522 559.000,333.016 557.300,336.321 556.077 C 337.690 555.571,338.915 555.772,339.790 556.647 C 340.534 557.391,341.550 558.000,342.048 558.000 C 343.457 558.000,346.250 553.213,345.525 552.041 C 345.169 551.465,345.751 545.482,346.818 538.747 C 349.324 522.937,349.027 497.554,346.417 504.357 C 346.070 505.261,345.203 506.000,344.491 506.000 C 342.475 506.000,340.724 511.962,342.213 513.756 C 343.184 514.926,343.075 515.472,341.665 516.503 C 339.224 518.288,334.322 516.349,332.199 512.758 C 331.308 511.250,329.114 509.533,327.324 508.942 C 325.535 508.351,322.680 506.569,320.981 504.982 L 317.891 502.096 313.196 505.680 C 310.613 507.652,308.569 509.472,308.652 509.726 C 308.736 509.979,310.086 511.524,311.651 513.158 C 313.915 515.521,315.112 516.028,317.499 515.637 C 319.150 515.366,321.363 515.482,322.417 515.894 C 324.138 516.567,323.960 516.929,320.667 519.440 C 318.650 520.979,317.000 522.601,317.000 523.044 C 317.000 524.216,329.305 519.238,330.558 517.560 C 331.158 516.756,332.151 516.475,332.856 516.911 C 333.736 517.455,333.002 518.742,330.328 521.339 C 327.359 524.222,325.768 525.000,322.838 525.000 C 320.792 525.000,318.836 525.457,318.491 526.015 C 317.552 527.534,320.093 538.229,321.892 540.333 C 322.754 541.340,324.840 542.742,326.526 543.447 C 328.213 544.151,330.800 546.162,332.274 547.914 C 335.825 552.134,334.806 553.668,325.334 558.355 C 317.228 562.366,316.888 562.475,317.250 560.942 C 317.390 560.350,315.294 559.673,312.500 559.406 C 309.750 559.144,306.931 558.870,306.235 558.798 C 304.612 558.630,297.000 552.138,297.000 550.922 C 297.000 549.463,298.452 549.841,300.624 551.865 C 301.725 552.890,303.532 554.214,304.639 554.807 C 307.410 556.290,316.208 554.965,316.637 553.000 C 316.817 552.175,317.263 550.194,317.628 548.598 C 318.049 546.754,317.722 544.566,316.729 542.598 C 315.870 540.894,314.898 538.271,314.569 536.768 C 313.783 533.179,309.489 531.031,302.800 530.882 L 297.500 530.765 302.403 529.943 C 305.100 529.492,307.692 528.532,308.163 527.811 C 309.160 526.285,308.357 522.135,306.670 520.101 C 304.674 517.694,299.330 515.984,295.928 516.664 C 293.516 517.147,292.841 516.977,293.176 515.973 C 293.419 515.242,294.267 514.285,295.060 513.848 C 295.852 513.410,297.998 512.191,299.830 511.139 L 303.159 509.225 297.644 506.527 C 294.611 505.043,291.365 503.980,290.432 504.164 C 289.498 504.349,287.547 506.749,286.095 509.497 C 282.807 515.721,279.440 517.522,271.832 517.123 C 266.967 516.868,266.008 517.116,265.066 518.877 C 264.462 520.006,262.187 521.463,260.011 522.115 C 257.835 522.767,255.161 524.133,254.069 525.150 C 252.977 526.168,251.221 527.000,250.168 527.000 C 247.460 527.000,239.985 522.638,236.551 519.053 C 233.943 516.331,233.779 515.782,234.927 513.637 C 235.874 511.867,235.923 510.725,235.117 509.218 C 234.242 507.584,234.433 506.727,236.091 504.843 C 237.225 503.554,237.841 503.175,237.460 504.000 C 236.332 506.446,244.882 496.754,246.584 493.657 C 249.041 489.190,247.626 489.530,243.669 494.359 M179.623 493.320 C 177.489 495.022,176.904 496.240,177.162 498.449 C 177.348 500.042,177.956 501.495,178.514 501.677 C 179.473 501.991,183.554 492.221,182.785 491.452 C 182.585 491.252,181.162 492.093,179.623 493.320 M195.600 496.855 C 195.202 500.350,195.092 503.426,195.356 503.689 C 196.019 504.353,197.317 493.447,196.768 491.820 C 196.524 491.094,195.998 493.360,195.600 496.855 M293.333 493.667 C 293.700 494.033,294.300 494.033,294.667 493.667 C 295.033 493.300,294.733 493.000,294.000 493.000 C 293.267 493.000,292.967 493.300,293.333 493.667 M316.000 494.500 C 316.000 494.775,316.225 495.000,316.500 495.000 C 316.775 495.000,317.000 494.775,317.000 494.500 C 317.000 494.225,316.775 494.000,316.500 494.000 C 316.225 494.000,316.000 494.225,316.000 494.500 M294.655 496.750 C 294.400 497.163,295.455 497.500,297.000 497.500 C 298.545 497.500,299.600 497.163,299.345 496.750 C 299.091 496.337,298.035 496.000,297.000 496.000 C 295.965 496.000,294.909 496.337,294.655 496.750 M315.000 497.500 C 315.000 497.775,315.225 498.000,315.500 498.000 C 315.775 498.000,316.000 497.775,316.000 497.500 C 316.000 497.225,315.775 497.000,315.500 497.000 C 315.225 497.000,315.000 497.225,315.000 497.500 M111.462 503.500 C 111.038 504.600,110.473 505.950,110.205 506.500 C 109.937 507.050,110.509 506.757,111.475 505.848 C 112.442 504.940,113.007 503.590,112.732 502.848 C 112.380 501.898,112.005 502.091,111.462 503.500 M170.861 505.967 C 167.743 508.564,170.280 508.584,175.000 506.000 C 178.403 504.137,178.427 504.083,175.861 504.042 C 174.409 504.019,172.159 504.885,170.861 505.967 M340.333 504.667 C 340.700 505.033,341.300 505.033,341.667 504.667 C 342.033 504.300,341.733 504.000,341.000 504.000 C 340.267 504.000,339.967 504.300,340.333 504.667 M248.000 508.000 C 246.718 508.828,246.754 508.972,248.250 508.985 C 249.213 508.993,250.000 508.550,250.000 508.000 C 250.000 506.780,249.887 506.780,248.000 508.000 M332.500 508.000 C 332.160 508.550,332.782 509.000,333.882 509.000 C 334.982 509.000,336.160 508.550,336.500 508.000 C 336.840 507.450,336.218 507.000,335.118 507.000 C 334.018 507.000,332.840 507.450,332.500 508.000 M217.970 509.944 C 218.543 511.014,219.505 512.194,220.109 512.567 C 220.713 512.941,220.434 512.066,219.489 510.623 C 217.487 507.568,216.451 507.105,217.970 509.944 M304.813 508.683 C 305.534 508.972,306.397 508.936,306.729 508.604 C 307.061 508.272,306.471 508.036,305.417 508.079 C 304.252 508.127,304.015 508.364,304.813 508.683 M181.020 513.960 C 179.909 516.138,179.000 518.619,179.000 519.474 C 179.000 520.328,178.480 522.034,177.845 523.264 C 177.209 524.494,176.389 526.148,176.023 526.940 C 175.657 527.733,174.714 528.586,173.929 528.837 C 172.890 529.168,172.978 528.753,174.250 527.317 C 178.129 522.940,175.133 513.447,169.287 511.591 C 166.823 510.809,164.000 511.790,164.000 513.429 C 164.000 514.848,171.520 520.000,173.590 520.000 C 175.273 520.000,175.335 520.506,173.965 523.066 C 172.852 525.146,169.534 525.673,168.464 523.941 C 168.104 523.358,166.614 523.016,165.154 523.180 C 163.462 523.370,162.590 523.031,162.748 522.244 C 163.036 520.815,153.372 524.165,151.582 526.114 C 150.778 526.990,150.866 527.084,151.923 526.481 C 152.706 526.034,155.087 525.350,157.216 524.961 L 161.086 524.253 160.793 529.249 C 160.562 533.185,159.969 534.664,158.000 536.212 C 156.625 537.293,155.444 539.131,155.377 540.297 C 155.309 541.462,154.746 542.585,154.127 542.791 C 152.475 543.342,152.744 545.577,154.993 549.985 C 156.211 552.375,156.600 554.129,155.993 554.505 C 155.447 554.842,155.014 555.654,155.032 556.309 C 155.049 556.964,155.680 556.687,156.433 555.694 C 157.517 554.264,158.915 553.956,163.151 554.211 L 168.500 554.533 163.860 556.684 C 158.153 559.329,156.369 561.545,160.597 560.737 C 163.487 560.184,163.488 560.186,161.293 561.842 C 160.083 562.754,157.967 564.294,156.589 565.265 C 155.151 566.278,153.820 568.441,153.462 570.349 C 153.120 572.174,151.718 574.980,150.347 576.584 C 148.368 578.900,147.949 579.088,148.314 577.500 C 148.566 576.400,149.121 574.651,149.546 573.614 C 150.087 572.293,149.939 571.854,149.054 572.149 C 147.605 572.632,145.037 579.391,145.015 582.781 C 145.007 584.036,145.675 585.322,146.500 585.638 C 148.579 586.436,148.486 595.746,146.345 601.097 C 144.826 604.892,144.819 605.618,146.263 609.867 C 147.129 612.415,148.088 619.450,148.395 625.500 C 148.702 631.550,149.719 640.325,150.654 645.000 C 152.396 653.700,152.717 659.198,151.795 664.500 C 151.106 668.454,152.580 671.268,154.945 670.518 C 156.329 670.078,156.931 670.608,157.445 672.719 C 157.817 674.249,159.303 677.300,160.746 679.500 C 162.510 682.190,163.513 685.301,163.809 689.000 C 164.050 692.025,163.964 694.234,163.617 693.909 C 163.270 693.585,160.626 695.657,157.743 698.515 C 153.629 702.593,151.585 703.853,148.250 704.368 C 145.912 704.728,144.000 705.442,144.000 705.953 C 144.000 707.540,155.688 706.435,158.518 704.580 C 161.096 702.891,161.125 702.898,160.038 704.929 C 159.428 706.068,158.334 707.000,157.605 707.000 C 156.008 707.000,154.564 731.475,155.687 739.500 C 156.072 742.250,156.375 750.800,156.360 758.500 C 156.338 769.896,156.003 773.151,154.556 776.000 C 152.741 779.575,146.191 787.000,144.852 787.000 C 144.444 787.000,144.192 784.638,144.291 781.750 C 144.563 773.870,144.071 762.596,143.481 763.186 C 142.641 764.026,136.950 780.122,135.838 784.801 C 135.091 787.947,133.442 790.420,129.699 794.009 C 124.322 799.164,123.794 801.707,128.847 798.109 C 130.476 796.949,132.662 796.000,133.704 796.000 C 136.106 796.000,138.000 794.134,138.000 791.769 C 138.000 789.480,140.312 788.516,142.656 789.828 C 144.071 790.619,145.401 790.013,149.167 786.860 C 157.780 779.649,157.845 779.419,158.299 754.463 C 158.528 741.849,158.295 731.601,157.752 730.389 C 157.072 728.873,157.271 727.376,158.456 725.084 C 159.364 723.328,160.031 721.129,159.939 720.196 C 159.602 716.812,160.214 715.546,161.000 718.000 C 162.207 721.768,162.142 728.594,160.873 731.379 C 160.197 732.863,160.060 734.982,160.532 736.676 C 161.316 739.495,161.319 739.492,162.226 735.500 C 163.993 727.715,164.178 724.140,163.154 717.564 C 162.300 712.076,162.398 710.179,163.717 706.707 C 164.717 704.076,165.350 699.109,165.408 693.451 C 165.494 685.037,165.260 683.928,162.076 677.653 C 158.685 670.969,158.654 670.788,158.851 658.702 C 159.193 637.687,161.552 595.884,163.433 577.500 C 164.309 568.944,168.055 560.718,172.840 556.844 C 174.432 555.555,176.474 553.334,177.378 551.910 C 178.949 549.433,180.558 537.272,181.303 522.255 C 181.528 517.721,182.220 515.193,183.836 513.008 C 185.586 510.641,185.738 510.000,184.550 510.000 C 183.720 510.000,182.132 511.782,181.020 513.960 M267.500 511.000 C 265.870 511.701,265.812 511.872,267.191 511.930 C 268.121 511.968,269.160 511.550,269.500 511.000 C 270.211 509.850,270.176 509.850,267.500 511.000 M249.071 516.259 C 248.012 517.954,248.146 517.966,251.676 516.491 C 256.518 514.468,256.698 514.205,253.145 514.350 C 251.491 514.418,249.695 515.259,249.071 516.259 M341.000 514.500 C 341.000 514.775,341.225 515.000,341.500 515.000 C 341.775 515.000,342.000 514.775,342.000 514.500 C 342.000 514.225,341.775 514.000,341.500 514.000 C 341.225 514.000,341.000 514.225,341.000 514.500 M242.000 515.500 C 242.000 515.775,242.225 516.000,242.500 516.000 C 242.775 516.000,243.000 515.775,243.000 515.500 C 243.000 515.225,242.775 515.000,242.500 515.000 C 242.225 515.000,242.000 515.225,242.000 515.500 M252.000 519.728 C 251.175 520.042,249.427 521.131,248.115 522.149 L 245.730 524.000 248.038 524.000 C 250.658 524.000,257.935 520.888,257.974 519.750 C 258.004 518.892,254.235 518.878,252.000 519.728 M268.000 519.500 C 268.000 519.775,267.775 520.000,267.500 520.000 C 267.225 520.000,267.000 519.775,267.000 519.500 C 267.000 519.225,267.225 519.000,267.500 519.000 C 267.775 519.000,268.000 519.225,268.000 519.500 M270.000 519.500 C 270.000 519.775,269.775 520.000,269.500 520.000 C 269.225 520.000,269.000 519.775,269.000 519.500 C 269.000 519.225,269.225 519.000,269.500 519.000 C 269.775 519.000,270.000 519.225,270.000 519.500 M140.500 523.000 C 140.840 523.550,141.541 524.000,142.059 524.000 C 142.577 524.000,143.000 523.550,143.000 523.000 C 143.000 522.450,142.298 522.000,141.441 522.000 C 140.584 522.000,140.160 522.450,140.500 523.000 M128.000 524.562 C 128.000 526.825,131.544 535.183,133.101 536.592 C 134.804 538.133,135.319 538.169,137.686 536.914 L 140.353 535.500 137.750 535.191 C 136.318 535.020,134.608 534.233,133.951 533.441 C 132.548 531.750,133.361 531.588,136.043 533.023 C 137.586 533.849,137.842 533.752,137.371 532.523 C 137.049 531.685,136.272 530.993,135.643 530.985 C 134.915 530.975,134.863 530.703,135.500 530.235 C 136.050 529.831,137.175 528.639,138.000 527.586 C 139.411 525.786,139.370 525.742,137.316 526.836 C 134.191 528.501,132.283 528.283,130.000 526.000 C 128.900 524.900,128.000 524.253,128.000 524.562 M260.000 527.500 C 260.000 527.775,259.775 528.000,259.500 528.000 C 259.225 528.000,259.000 527.775,259.000 527.500 C 259.000 527.225,259.225 527.000,259.500 527.000 C 259.775 527.000,260.000 527.225,260.000 527.500 M172.000 528.500 C 172.000 528.775,171.775 529.000,171.500 529.000 C 171.225 529.000,171.000 528.775,171.000 528.500 C 171.000 528.225,171.225 528.000,171.500 528.000 C 171.775 528.000,172.000 528.225,172.000 528.500 M327.000 528.500 C 327.000 528.775,326.775 529.000,326.500 529.000 C 326.225 529.000,326.000 528.775,326.000 528.500 C 326.000 528.225,326.225 528.000,326.500 528.000 C 326.775 528.000,327.000 528.225,327.000 528.500 M325.000 529.500 C 325.000 529.775,324.775 530.000,324.500 530.000 C 324.225 530.000,324.000 529.775,324.000 529.500 C 324.000 529.225,324.225 529.000,324.500 529.000 C 324.775 529.000,325.000 529.225,325.000 529.500 M342.506 533.994 C 341.115 535.530,339.496 535.980,335.595 535.916 L 330.500 535.832 336.453 534.556 C 339.728 533.855,342.587 532.739,342.807 532.078 C 343.028 531.416,343.459 531.125,343.765 531.431 C 344.071 531.737,343.504 532.890,342.506 533.994 M140.000 533.500 C 140.000 533.775,140.225 534.000,140.500 534.000 C 140.775 534.000,141.000 533.775,141.000 533.500 C 141.000 533.225,140.775 533.000,140.500 533.000 C 140.225 533.000,140.000 533.225,140.000 533.500 M144.000 534.500 C 144.000 534.775,144.225 535.000,144.500 535.000 C 144.775 535.000,145.000 534.775,145.000 534.500 C 145.000 534.225,144.775 534.000,144.500 534.000 C 144.225 534.000,144.000 534.225,144.000 534.500 M123.000 537.500 C 123.000 537.775,123.225 538.000,123.500 538.000 C 123.775 538.000,124.000 537.775,124.000 537.500 C 124.000 537.225,123.775 537.000,123.500 537.000 C 123.225 537.000,123.000 537.225,123.000 537.500 M141.332 541.534 C 138.477 544.592,136.350 546.000,134.582 546.000 C 133.101 546.000,132.000 546.567,132.000 547.329 C 132.000 549.340,141.644 549.370,142.415 547.362 C 142.843 546.245,143.795 546.016,145.999 546.500 C 148.561 547.062,149.000 546.863,149.000 545.138 C 149.000 544.027,148.550 542.840,148.000 542.500 C 147.450 542.160,147.000 540.784,147.000 539.441 C 147.000 536.069,146.135 536.388,141.332 541.534 M228.559 543.468 C 230.468 544.912,230.466 544.937,228.441 544.968 C 227.309 544.986,225.509 544.339,224.441 543.532 C 222.532 542.088,222.534 542.063,224.559 542.032 C 225.691 542.014,227.491 542.661,228.559 543.468 M288.299 543.923 C 289.634 544.431,291.040 545.669,291.423 546.673 C 291.981 548.138,291.869 548.252,290.859 547.250 C 290.167 546.563,288.678 545.980,287.550 545.955 C 286.423 545.930,284.150 545.292,282.500 544.536 L 279.500 543.162 282.685 543.081 C 284.437 543.037,286.963 543.416,288.299 543.923 M243.636 546.506 C 239.978 548.414,237.902 548.389,240.441 546.468 C 241.509 545.661,243.309 545.003,244.441 545.006 C 246.163 545.011,246.032 545.257,243.636 546.506 M130.115 549.000 C 130.069 550.375,130.467 552.175,131.000 553.000 C 131.862 554.333,131.960 554.333,131.885 553.000 C 131.839 552.175,131.440 550.375,131.000 549.000 L 130.199 546.500 130.115 549.000 M279.039 551.458 C 276.142 554.542,277.454 554.862,280.656 551.853 C 282.648 549.982,283.159 549.886,284.633 551.103 C 286.095 552.310,286.258 552.296,285.834 551.000 C 285.021 548.514,281.588 548.745,279.039 551.458 M340.000 552.500 C 340.000 552.775,339.775 553.000,339.500 553.000 C 339.225 553.000,339.000 552.775,339.000 552.500 C 339.000 552.225,339.225 552.000,339.500 552.000 C 339.775 552.000,340.000 552.225,340.000 552.500 M148.236 561.217 C 147.422 562.198,147.751 562.535,149.635 562.647 C 151.013 562.730,151.939 562.317,151.737 561.710 C 151.180 560.040,149.418 559.792,148.236 561.217 M105.543 562.931 C 105.226 563.443,105.378 564.115,105.879 564.425 C 106.380 564.735,107.048 564.316,107.364 563.494 C 107.986 561.874,106.483 561.409,105.543 562.931 M149.000 565.500 C 149.000 565.775,149.225 566.000,149.500 566.000 C 149.775 566.000,150.000 565.775,150.000 565.500 C 150.000 565.225,149.775 565.000,149.500 565.000 C 149.225 565.000,149.000 565.225,149.000 565.500 M131.799 569.258 C 132.505 570.108,134.189 571.081,135.541 571.421 C 136.893 571.760,138.000 572.480,138.000 573.019 C 138.000 573.559,138.450 574.000,139.000 574.000 C 139.550 574.000,140.000 573.314,140.000 572.475 C 140.000 571.024,138.635 570.245,133.008 568.489 C 130.836 567.811,130.680 567.910,131.799 569.258 M130.744 572.226 C 130.410 573.095,130.767 574.637,131.537 575.653 C 132.617 577.079,132.928 577.158,132.898 576.000 C 132.877 575.175,132.520 573.633,132.105 572.573 C 131.462 570.934,131.259 570.882,130.744 572.226 M354.418 573.114 C 357.325 575.401,359.078 575.004,357.020 572.524 C 356.324 571.686,354.850 571.000,353.743 571.000 C 351.939 571.000,352.009 571.219,354.418 573.114 M92.000 572.500 C 92.000 572.775,92.225 573.000,92.500 573.000 C 92.775 573.000,93.000 572.775,93.000 572.500 C 93.000 572.225,92.775 572.000,92.500 572.000 C 92.225 572.000,92.000 572.225,92.000 572.500 M309.170 575.500 C 309.186 576.600,309.560 578.625,310.000 580.000 L 310.801 582.500 310.830 580.000 C 310.846 578.625,310.473 576.600,310.000 575.500 L 309.141 573.500 309.170 575.500 M139.459 576.067 C 138.383 577.808,139.608 578.177,140.980 576.524 C 141.769 575.574,141.845 575.000,141.181 575.000 C 140.597 575.000,139.821 575.480,139.459 576.067 M350.583 575.866 C 350.152 576.563,350.070 577.403,350.400 577.733 C 351.295 578.628,352.271 577.312,351.787 575.862 C 351.449 574.846,351.213 574.846,350.583 575.866 M96.070 577.404 C 96.032 578.451,94.270 580.926,92.156 582.904 C 87.394 587.359,86.571 590.184,89.097 593.396 C 90.144 594.727,91.000 596.186,91.000 596.639 C 91.000 597.091,93.043 599.365,95.541 601.691 C 99.609 605.479,100.337 605.804,102.526 604.806 C 104.662 603.833,105.233 604.027,107.058 606.346 C 109.580 609.553,110.686 609.644,113.624 606.884 L 115.877 604.767 117.313 610.134 C 123.105 631.765,125.207 651.395,125.493 686.500 C 125.650 705.848,125.393 710.611,123.874 716.500 C 120.401 729.967,116.426 738.975,109.482 749.114 C 106.519 753.441,103.790 758.605,103.417 760.589 C 102.584 765.033,103.701 787.603,105.108 794.750 C 106.201 800.300,106.982 800.797,111.000 798.500 C 114.269 796.631,117.449 796.631,119.000 798.500 C 121.121 801.056,122.327 800.149,120.506 797.368 C 118.286 793.980,119.019 789.153,122.434 784.676 C 123.845 782.825,125.000 780.226,125.000 778.899 C 125.000 777.572,125.450 775.027,126.000 773.243 C 126.550 771.460,127.419 768.650,127.930 767.000 C 129.490 761.971,127.466 763.643,123.997 770.250 C 122.193 773.688,120.124 777.190,119.399 778.033 C 118.675 778.876,116.483 782.764,114.528 786.672 C 109.922 795.878,108.427 797.184,106.869 793.359 C 104.840 788.374,105.286 780.458,107.786 777.076 C 109.004 775.429,110.000 772.780,110.000 771.191 C 110.000 769.591,111.367 766.335,113.061 763.900 L 116.123 759.500 112.091 764.000 C 109.874 766.475,108.032 769.175,107.998 770.000 C 107.964 770.825,107.276 772.374,106.468 773.441 C 105.137 775.202,105.000 774.662,105.000 767.641 C 105.000 759.350,105.813 757.000,110.884 750.636 C 114.526 746.065,117.600 739.763,122.731 726.352 L 126.500 716.500 126.425 684.500 C 126.340 648.076,124.346 628.526,118.467 606.500 C 117.733 603.750,116.711 599.025,116.197 596.000 L 115.263 590.500 115.131 595.139 C 114.989 600.169,112.203 604.861,110.122 603.575 C 109.251 603.037,109.084 600.169,109.515 593.166 C 109.843 587.850,109.714 582.150,109.229 580.500 C 108.390 577.647,108.316 577.754,107.728 582.686 C 107.260 586.612,103.138 596.870,100.455 600.787 C 100.347 600.946,99.084 600.540,97.648 599.886 C 94.684 598.535,93.263 595.337,94.901 593.699 C 95.505 593.095,96.000 590.694,96.000 588.365 C 96.000 586.036,96.389 583.088,96.865 581.815 C 97.341 580.542,97.373 578.600,96.936 577.500 C 96.184 575.609,96.137 575.603,96.070 577.404 M89.405 581.146 C 87.513 583.276,87.515 583.283,89.694 582.140 C 92.125 580.865,93.622 579.000,92.214 579.000 C 91.717 579.000,90.453 579.965,89.405 581.146 M119.000 580.000 C 119.000 580.733,119.300 581.033,119.667 580.667 C 120.033 580.300,120.033 579.700,119.667 579.333 C 119.300 578.967,119.000 579.267,119.000 580.000 M353.802 582.896 C 353.494 584.992,353.740 585.653,354.688 585.289 C 356.141 584.732,356.521 580.000,355.113 580.000 C 354.626 580.000,354.036 581.303,353.802 582.896 M347.607 582.582 C 347.273 583.452,347.000 584.857,347.000 585.704 C 347.000 586.960,347.277 587.015,348.500 586.000 C 350.122 584.654,350.566 581.000,349.107 581.000 C 348.616 581.000,347.941 581.712,347.607 582.582 M337.093 584.388 C 336.192 585.473,336.493 586.433,338.470 588.782 C 339.862 590.436,341.061 593.074,341.136 594.644 C 341.260 597.241,341.314 597.282,341.727 595.088 C 342.075 593.240,342.385 593.005,343.051 594.083 C 343.766 595.239,344.199 595.134,345.477 593.495 C 346.940 591.619,346.961 591.666,345.843 594.277 C 344.975 596.305,344.952 597.352,345.760 598.160 C 347.273 599.673,350.001 598.463,349.996 596.281 C 349.991 593.660,346.452 588.309,343.804 586.918 C 342.537 586.252,341.140 585.099,340.700 584.354 C 339.680 582.626,338.546 582.637,337.093 584.388 M353.991 594.510 C 353.302 595.341,352.355 598.154,351.886 600.760 C 351.246 604.323,350.164 606.268,347.529 608.595 C 345.602 610.298,344.315 611.982,344.670 612.337 C 345.025 612.692,345.931 612.472,346.682 611.849 C 347.434 611.225,348.335 611.001,348.685 611.352 C 349.035 611.702,349.812 611.137,350.411 610.096 C 351.010 609.056,352.717 606.681,354.204 604.819 C 357.440 600.766,359.113 593.000,356.750 593.000 C 355.922 593.000,354.681 593.680,353.991 594.510 M138.232 599.000 C 137.570 600.664,137.572 602.139,138.239 603.410 C 139.164 605.173,139.315 605.189,140.192 603.622 C 140.792 602.549,140.790 600.928,140.185 599.212 L 139.228 596.500 138.232 599.000 M120.000 598.500 C 120.000 598.775,120.225 599.000,120.500 599.000 C 120.775 599.000,121.000 598.775,121.000 598.500 C 121.000 598.225,120.775 598.000,120.500 598.000 C 120.225 598.000,120.000 598.225,120.000 598.500 M130.158 602.000 C 130.158 603.375,130.385 603.938,130.662 603.250 C 130.940 602.563,130.940 601.438,130.662 600.750 C 130.385 600.063,130.158 600.625,130.158 602.000 M132.000 604.500 C 132.000 604.775,132.225 605.000,132.500 605.000 C 132.775 605.000,133.000 604.775,133.000 604.500 C 133.000 604.225,132.775 604.000,132.500 604.000 C 132.225 604.000,132.000 604.225,132.000 604.500 M335.505 606.993 C 334.692 608.308,335.844 612.000,337.067 612.000 C 338.281 612.000,338.283 607.293,337.069 606.543 C 336.557 606.226,335.853 606.429,335.505 606.993 M352.216 610.953 C 347.658 615.791,347.783 615.106,349.593 625.359 C 350.092 628.184,349.663 629.314,346.899 632.462 C 344.162 635.579,343.541 637.191,343.186 642.103 C 342.797 647.485,342.935 648.000,344.770 648.000 C 348.405 648.000,353.252 633.651,352.903 623.922 C 352.836 622.040,353.742 617.805,354.918 614.512 C 356.093 611.218,356.930 608.047,356.777 607.465 C 356.625 606.882,354.572 608.452,352.216 610.953 M323.500 611.000 C 323.840 611.550,323.641 612.000,323.059 612.000 C 322.477 612.000,322.000 611.550,322.000 611.000 C 322.000 610.450,322.198 610.000,322.441 610.000 C 322.684 610.000,323.160 610.450,323.500 611.000 M137.500 613.000 C 137.160 613.550,137.359 614.000,137.941 614.000 C 138.523 614.000,139.000 613.550,139.000 613.000 C 139.000 612.450,138.802 612.000,138.559 612.000 C 138.316 612.000,137.840 612.450,137.500 613.000 M343.250 619.031 C 340.487 620.142,340.343 623.095,342.937 625.443 C 345.350 627.627,347.334 626.600,346.369 623.666 C 345.978 622.475,345.706 620.712,345.766 619.750 C 345.827 618.788,345.791 618.029,345.688 618.063 C 345.585 618.098,344.488 618.534,343.250 619.031 M129.667 619.667 C 127.682 621.652,130.420 630.000,133.057 630.000 C 134.110 630.000,134.299 624.716,133.370 621.250 C 132.784 619.065,131.022 618.311,129.667 619.667 M334.362 627.500 C 334.045 628.325,334.076 629.755,334.430 630.678 C 335.020 632.215,335.207 632.222,336.673 630.755 C 338.323 629.106,337.883 626.000,336.000 626.000 C 335.415 626.000,334.678 626.675,334.362 627.500 M326.022 648.139 C 326.010 649.041,326.885 650.841,327.967 652.139 C 330.626 655.331,330.657 652.397,328.000 649.000 C 326.527 647.117,326.039 646.905,326.022 648.139 M345.301 650.122 C 343.000 651.023,337.000 656.591,337.000 657.827 C 337.000 658.878,340.979 660.189,341.036 659.156 C 341.056 658.795,342.201 657.150,343.580 655.500 L 346.089 652.500 345.434 655.257 C 344.657 658.531,345.703 665.000,347.010 665.000 C 348.606 665.000,349.715 661.704,350.265 655.320 C 350.833 648.729,350.297 648.168,345.301 650.122 M132.000 667.500 C 132.000 667.775,132.225 668.000,132.500 668.000 C 132.775 668.000,133.000 667.775,133.000 667.500 C 133.000 667.225,132.775 667.000,132.500 667.000 C 132.225 667.000,132.000 667.225,132.000 667.500 M155.000 668.500 C 155.000 668.775,154.775 669.000,154.500 669.000 C 154.225 669.000,154.000 668.775,154.000 668.500 C 154.000 668.225,154.225 668.000,154.500 668.000 C 154.775 668.000,155.000 668.225,155.000 668.500 M341.000 671.000 C 341.000 671.733,341.300 672.033,341.667 671.667 C 342.033 671.300,342.033 670.700,341.667 670.333 C 341.300 669.967,341.000 670.267,341.000 671.000 M344.000 671.000 C 344.000 671.733,344.300 672.033,344.667 671.667 C 345.033 671.300,345.033 670.700,344.667 670.333 C 344.300 669.967,344.000 670.267,344.000 671.000 M342.000 673.500 C 342.000 673.775,342.225 674.000,342.500 674.000 C 342.775 674.000,343.000 673.775,343.000 673.500 C 343.000 673.225,342.775 673.000,342.500 673.000 C 342.225 673.000,342.000 673.225,342.000 673.500 M341.782 678.362 C 341.271 681.034,344.353 683.856,345.592 681.851 C 346.049 681.112,346.584 681.292,347.200 682.393 C 348.393 684.524,350.000 683.518,350.000 680.641 C 350.000 677.655,348.188 676.000,344.917 676.000 C 342.890 676.000,342.123 676.578,341.782 678.362 M151.020 681.479 L 148.691 683.958 151.338 682.729 C 152.793 682.053,153.988 680.938,153.992 680.250 C 154.003 678.515,153.678 678.650,151.020 681.479 M339.250 685.529 C 336.448 687.502,336.326 690.000,339.031 690.000 C 341.201 690.000,342.381 688.119,341.835 685.531 C 341.529 684.084,341.303 684.084,339.250 685.529 M152.250 688.220 C 151.012 688.817,150.000 689.698,150.000 690.178 C 150.000 690.659,151.350 690.353,153.000 689.500 C 156.635 687.620,156.703 688.228,153.488 693.852 C 150.501 699.076,150.378 699.873,152.909 697.583 C 155.375 695.351,157.391 690.460,156.645 688.518 C 155.974 686.768,155.350 686.726,152.250 688.220 M347.575 691.350 C 346.826 696.342,348.025 702.770,350.315 706.039 C 351.781 708.133,351.853 707.645,351.362 698.893 C 351.072 693.727,350.661 688.938,350.449 688.250 C 349.638 685.625,348.201 687.175,347.575 691.350 M337.460 693.595 C 339.658 695.201,341.000 695.399,341.000 694.117 C 341.000 693.631,339.771 692.998,338.269 692.711 C 335.715 692.223,335.662 692.280,337.460 693.595 M319.000 697.636 C 319.000 698.051,320.209 699.653,321.687 701.195 C 324.446 704.075,327.358 704.707,330.000 703.000 C 331.203 702.223,331.036 702.028,329.154 702.015 C 327.864 702.007,325.614 701.174,324.154 700.164 C 320.078 697.345,319.000 696.816,319.000 697.636 M338.578 700.319 C 336.873 701.566,336.907 701.781,339.233 704.484 C 340.857 706.373,342.244 707.120,343.342 706.699 C 345.655 705.811,345.409 703.733,342.688 701.177 C 340.708 699.316,340.118 699.193,338.578 700.319 M348.000 711.671 C 348.000 713.548,350.804 717.000,352.329 717.000 C 353.859 717.000,352.831 714.189,350.500 712.000 C 348.101 709.746,348.000 709.733,348.000 711.671 M351.000 745.393 C 351.000 746.978,353.150 748.016,356.332 747.967 C 358.493 747.934,358.492 747.927,356.139 745.967 C 353.385 743.672,351.000 743.406,351.000 745.393 M362.970 755.944 C 363.543 757.014,364.505 758.194,365.109 758.567 C 365.713 758.941,365.434 758.066,364.489 756.623 C 362.487 753.568,361.451 753.105,362.970 755.944 M330.813 755.683 C 331.534 755.972,332.397 755.936,332.729 755.604 C 333.061 755.272,332.471 755.036,331.417 755.079 C 330.252 755.127,330.015 755.364,330.813 755.683 M116.000 758.500 C 116.000 758.775,116.225 759.000,116.500 759.000 C 116.775 759.000,117.000 758.775,117.000 758.500 C 117.000 758.225,116.775 758.000,116.500 758.000 C 116.225 758.000,116.000 758.225,116.000 758.500 M328.074 766.411 C 327.237 767.419,327.215 768.015,327.995 768.497 C 329.155 769.214,332.000 767.353,332.000 765.878 C 332.000 764.496,329.367 764.853,328.074 766.411 M116.000 790.441 C 116.000 790.684,115.480 791.203,114.845 791.595 C 114.130 792.038,113.962 791.870,114.405 791.155 C 115.117 790.002,116.000 789.607,116.000 790.441 " stroke="none" fill="undefined" fill-rule="evenodd"/></svg>